<svg xmlns="http://www.w3.org/2000/svg" xmlns:xlink="http://www.w3.org/1999/xlink" width="500" zoomAndPan="magnify" viewBox="0 0 375 374.999991" height="500" preserveAspectRatio="xMidYMid meet" version="1.0"><defs><g/><clipPath id="f655ce5126"><path d="M 10 38 L 361 38 L 361 231.105469 L 10 231.105469 Z M 10 38 " clip-rule="nonzero"/></clipPath></defs><g clip-path="url(#f655ce5126)"><path fill="#333333" d="M 185.613281 122.882812 L 27.402344 203.894531 C 21.59375 206.871094 21.410156 213.195312 26.890625 216.777344 L 26.894531 216.769531 C 29.050781 218.054688 31.386719 218.671875 33.898438 218.625 L 337.328125 218.625 C 348.167969 218.625 352.207031 208.183594 343.828125 203.894531 Z M 165.652344 67.941406 C 165.625 76.0625 153.199219 76.167969 153.25 67.78125 C 153.34375 50.046875 172.03125 37.476562 185.589844 38.28125 C 200.296875 38.542969 210.472656 46.625 215.464844 57.140625 C 224.449219 76.050781 215.804688 100.414062 191.839844 105.199219 L 191.839844 112.152344 L 349.472656 192.863281 C 369.554688 203.148438 361.113281 231.0625 337.328125 231.0625 L 33.898438 231.0625 C 31.496094 231.078125 29.136719 230.765625 26.820312 230.121094 C 24.507812 229.472656 22.324219 228.519531 20.277344 227.261719 L 20.285156 227.25 C 6.945312 218.882812 7.015625 200.414062 21.757812 192.863281 C 74.300781 165.964844 126.84375 139.0625 179.382812 112.152344 L 179.382812 99.769531 L 179.398438 99.769531 C 179.398438 99.378906 179.4375 98.992188 179.507812 98.609375 C 179.582031 98.226562 179.691406 97.851562 179.832031 97.488281 C 179.976562 97.125 180.152344 96.78125 180.363281 96.449219 C 180.570312 96.121094 180.808594 95.8125 181.074219 95.527344 C 181.34375 95.242188 181.632812 94.984375 181.949219 94.753906 C 182.265625 94.523438 182.597656 94.328125 182.949219 94.160156 C 183.304688 93.992188 183.667969 93.859375 184.046875 93.761719 C 184.425781 93.664062 184.808594 93.601562 185.199219 93.574219 C 215.59375 91.539062 211.675781 50.691406 184.953125 50.691406 C 176.703125 50.691406 165.703125 58.132812 165.652344 67.945312 Z M 165.652344 67.941406 " fill-opacity="1" fill-rule="nonzero"/></g><g fill="#FFFFFF" fill-opacity="1"><g transform="translate(21.677891, 314.367622)"><g><path d="M 24.875 -69.875 C 28.113281 -69.875 30.578125 -69.5 32.265625 -68.75 C 33.953125 -68.007812 35.441406 -67.1875 36.734375 -66.28125 C 37.515625 -65.832031 38.144531 -65.492188 38.625 -65.265625 C 39.113281 -65.035156 39.585938 -64.921875 40.046875 -64.921875 C 40.691406 -64.921875 41.160156 -65.273438 41.453125 -65.984375 C 41.742188 -66.703125 41.984375 -67.773438 42.171875 -69.203125 L 44.421875 -69.203125 C 44.347656 -68.097656 44.265625 -66.785156 44.171875 -65.265625 C 44.078125 -63.742188 44.007812 -61.734375 43.96875 -59.234375 C 43.9375 -56.742188 43.921875 -53.457031 43.921875 -49.375 L 41.6875 -49.375 C 41.5 -52.476562 40.820312 -55.457031 39.65625 -58.3125 C 38.488281 -61.164062 36.785156 -63.5 34.546875 -65.3125 C 32.316406 -67.125 29.382812 -68.03125 25.75 -68.03125 C 22.320312 -68.03125 19.488281 -66.992188 17.25 -64.921875 C 15.007812 -62.847656 13.890625 -60.125 13.890625 -56.75 C 13.890625 -53.84375 14.632812 -51.398438 16.125 -49.421875 C 17.625 -47.441406 19.617188 -45.65625 22.109375 -44.0625 C 24.609375 -42.476562 27.3125 -40.78125 30.21875 -38.96875 C 33.59375 -36.894531 36.59375 -34.835938 39.21875 -32.796875 C 41.84375 -30.753906 43.914062 -28.503906 45.4375 -26.046875 C 46.957031 -23.585938 47.71875 -20.609375 47.71875 -17.109375 C 47.71875 -12.960938 46.773438 -9.523438 44.890625 -6.796875 C 43.015625 -4.078125 40.519531 -2.035156 37.40625 -0.671875 C 34.300781 0.679688 30.867188 1.359375 27.109375 1.359375 C 23.679688 1.359375 20.960938 0.96875 18.953125 0.1875 C 16.941406 -0.582031 15.222656 -1.390625 13.796875 -2.234375 C 12.367188 -3.140625 11.269531 -3.59375 10.5 -3.59375 C 9.851562 -3.59375 9.382812 -3.234375 9.09375 -2.515625 C 8.800781 -1.804688 8.554688 -0.738281 8.359375 0.6875 L 6.125 0.6875 C 6.25 -0.675781 6.328125 -2.28125 6.359375 -4.125 C 6.398438 -5.976562 6.4375 -8.394531 6.46875 -11.375 C 6.5 -14.351562 6.515625 -18.109375 6.515625 -22.640625 L 8.75 -22.640625 C 9.007812 -18.753906 9.738281 -15.125 10.9375 -11.75 C 12.132812 -8.382812 13.976562 -5.679688 16.46875 -3.640625 C 18.96875 -1.597656 22.289062 -0.578125 26.4375 -0.578125 C 28.570312 -0.578125 30.59375 -1.015625 32.5 -1.890625 C 34.414062 -2.765625 35.988281 -4.15625 37.21875 -6.0625 C 38.445312 -7.976562 39.0625 -10.460938 39.0625 -13.515625 C 39.0625 -16.171875 38.429688 -18.484375 37.171875 -20.453125 C 35.910156 -22.429688 34.144531 -24.28125 31.875 -26 C 29.601562 -27.71875 26.945312 -29.484375 23.90625 -31.296875 C 20.863281 -33.171875 18.015625 -35.078125 15.359375 -37.015625 C 12.703125 -38.960938 10.578125 -41.21875 8.984375 -43.78125 C 7.398438 -46.34375 6.609375 -49.4375 6.609375 -53.0625 C 6.609375 -56.882812 7.46875 -60.039062 9.1875 -62.53125 C 10.90625 -65.03125 13.15625 -66.878906 15.9375 -68.078125 C 18.726562 -69.273438 21.707031 -69.875 24.875 -69.875 Z M 24.875 -69.875 "/></g></g></g><g fill="#FFFFFF" fill-opacity="1"><g transform="translate(63.757271, 314.367622)"><g><path d="M 44.703125 0 L 44.703125 -1.9375 C 46.910156 -2.070312 48.578125 -2.332031 49.703125 -2.71875 C 50.835938 -3.101562 51.597656 -3.878906 51.984375 -5.046875 C 52.378906 -6.210938 52.578125 -7.960938 52.578125 -10.296875 L 52.578125 -58.5 C 52.578125 -60.90625 52.378906 -62.671875 51.984375 -63.796875 C 51.597656 -64.929688 50.835938 -65.707031 49.703125 -66.125 C 48.578125 -66.550781 46.910156 -66.796875 44.703125 -66.859375 L 44.703125 -68.8125 C 46.191406 -68.75 48.070312 -68.679688 50.34375 -68.609375 C 52.613281 -68.546875 54.847656 -68.515625 57.046875 -68.515625 C 59.578125 -68.515625 61.941406 -68.546875 64.140625 -68.609375 C 66.347656 -68.679688 68.128906 -68.75 69.484375 -68.8125 L 69.484375 -66.859375 C 67.285156 -66.796875 65.617188 -66.550781 64.484375 -66.125 C 63.347656 -65.707031 62.582031 -64.929688 62.1875 -63.796875 C 61.800781 -62.671875 61.609375 -60.90625 61.609375 -58.5 L 61.609375 -10.296875 C 61.609375 -7.960938 61.800781 -6.210938 62.1875 -5.046875 C 62.582031 -3.878906 63.347656 -3.101562 64.484375 -2.71875 C 65.617188 -2.332031 67.285156 -2.070312 69.484375 -1.9375 L 69.484375 0 C 68.128906 -0.125 66.347656 -0.203125 64.140625 -0.234375 C 61.941406 -0.273438 59.578125 -0.296875 57.046875 -0.296875 C 54.847656 -0.296875 52.613281 -0.273438 50.34375 -0.234375 C 48.070312 -0.203125 46.191406 -0.125 44.703125 0 Z M 4.078125 0 L 4.078125 -1.9375 C 6.285156 -2.070312 7.953125 -2.332031 9.078125 -2.71875 C 10.210938 -3.101562 10.972656 -3.878906 11.359375 -5.046875 C 11.753906 -6.210938 11.953125 -7.960938 11.953125 -10.296875 L 11.953125 -58.5 C 11.953125 -60.90625 11.753906 -62.671875 11.359375 -63.796875 C 10.972656 -64.929688 10.210938 -65.707031 9.078125 -66.125 C 7.953125 -66.550781 6.285156 -66.796875 4.078125 -66.859375 L 4.078125 -68.8125 C 5.441406 -68.75 7.222656 -68.679688 9.421875 -68.609375 C 11.628906 -68.546875 13.992188 -68.515625 16.515625 -68.515625 C 18.785156 -68.515625 21.035156 -68.546875 23.265625 -68.609375 C 25.503906 -68.679688 27.367188 -68.75 28.859375 -68.8125 L 28.859375 -66.859375 C 26.660156 -66.796875 24.992188 -66.550781 23.859375 -66.125 C 22.722656 -65.707031 21.960938 -64.929688 21.578125 -63.796875 C 21.191406 -62.671875 21 -60.90625 21 -58.5 L 21 -10.296875 C 21 -7.960938 21.191406 -6.210938 21.578125 -5.046875 C 21.960938 -3.878906 22.722656 -3.101562 23.859375 -2.71875 C 24.992188 -2.332031 26.660156 -2.070312 28.859375 -1.9375 L 28.859375 0 C 27.367188 -0.125 25.503906 -0.203125 23.265625 -0.234375 C 21.035156 -0.273438 18.785156 -0.296875 16.515625 -0.296875 C 13.992188 -0.296875 11.628906 -0.273438 9.421875 -0.234375 C 7.222656 -0.203125 5.441406 -0.125 4.078125 0 Z M 17.59375 -33.625 L 17.59375 -35.578125 L 55.984375 -35.578125 L 55.984375 -33.625 Z M 17.59375 -33.625 "/></g></g></g><g fill="#FFFFFF" fill-opacity="1"><g transform="translate(126.925633, 314.367622)"><g><path d="M 52.578125 -68.8125 C 52.316406 -66.539062 52.132812 -64.335938 52.03125 -62.203125 C 51.9375 -60.066406 51.890625 -58.445312 51.890625 -57.34375 C 51.890625 -56.175781 51.921875 -55.054688 51.984375 -53.984375 C 52.054688 -52.921875 52.125 -52.03125 52.1875 -51.3125 L 49.953125 -51.3125 C 49.566406 -55.132812 49.015625 -58.160156 48.296875 -60.390625 C 47.585938 -62.628906 46.375 -64.21875 44.65625 -65.15625 C 42.9375 -66.101562 40.363281 -66.578125 36.9375 -66.578125 L 28.859375 -66.578125 C 26.660156 -66.578125 24.992188 -66.394531 23.859375 -66.03125 C 22.722656 -65.675781 21.960938 -64.929688 21.578125 -63.796875 C 21.191406 -62.671875 21 -60.90625 21 -58.5 L 21 -10.296875 C 21 -7.960938 21.191406 -6.210938 21.578125 -5.046875 C 21.960938 -3.878906 22.722656 -3.117188 23.859375 -2.765625 C 24.992188 -2.410156 26.660156 -2.234375 28.859375 -2.234375 L 35.953125 -2.234375 C 40.035156 -2.234375 43.128906 -2.785156 45.234375 -3.890625 C 47.347656 -4.992188 48.875 -6.789062 49.8125 -9.28125 C 50.75 -11.769531 51.441406 -15.15625 51.890625 -19.4375 L 54.140625 -19.4375 C 53.941406 -17.6875 53.84375 -15.351562 53.84375 -12.4375 C 53.84375 -11.207031 53.890625 -9.441406 53.984375 -7.140625 C 54.085938 -4.835938 54.265625 -2.457031 54.515625 0 C 51.210938 -0.125 47.488281 -0.203125 43.34375 -0.234375 C 39.195312 -0.273438 35.503906 -0.296875 32.265625 -0.296875 C 30.835938 -0.296875 29.003906 -0.296875 26.765625 -0.296875 C 24.535156 -0.296875 22.125 -0.273438 19.53125 -0.234375 C 16.9375 -0.203125 14.3125 -0.171875 11.65625 -0.140625 C 9 -0.109375 6.472656 -0.0625 4.078125 0 L 4.078125 -1.9375 C 6.285156 -2.070312 7.953125 -2.332031 9.078125 -2.71875 C 10.210938 -3.101562 10.972656 -3.878906 11.359375 -5.046875 C 11.753906 -6.210938 11.953125 -7.960938 11.953125 -10.296875 L 11.953125 -58.5 C 11.953125 -60.90625 11.753906 -62.671875 11.359375 -63.796875 C 10.972656 -64.929688 10.210938 -65.707031 9.078125 -66.125 C 7.953125 -66.550781 6.285156 -66.796875 4.078125 -66.859375 L 4.078125 -68.8125 C 6.472656 -68.75 9 -68.695312 11.65625 -68.65625 C 14.3125 -68.625 16.9375 -68.59375 19.53125 -68.5625 C 22.125 -68.53125 24.535156 -68.515625 26.765625 -68.515625 C 29.003906 -68.515625 30.835938 -68.515625 32.265625 -68.515625 C 35.242188 -68.515625 38.628906 -68.53125 42.421875 -68.5625 C 46.210938 -68.59375 49.597656 -68.675781 52.578125 -68.8125 Z M 35.859375 -35.578125 C 35.859375 -35.578125 35.859375 -35.25 35.859375 -34.59375 C 35.859375 -33.945312 35.859375 -33.625 35.859375 -33.625 L 18.078125 -33.625 C 18.078125 -33.625 18.078125 -33.945312 18.078125 -34.59375 C 18.078125 -35.25 18.078125 -35.578125 18.078125 -35.578125 Z M 38.6875 -48.40625 C 38.425781 -44.707031 38.3125 -41.882812 38.34375 -39.9375 C 38.375 -38 38.390625 -36.21875 38.390625 -34.59375 C 38.390625 -32.976562 38.421875 -31.195312 38.484375 -29.25 C 38.546875 -27.3125 38.707031 -24.492188 38.96875 -20.796875 L 36.734375 -20.796875 C 36.472656 -22.867188 36.164062 -24.894531 35.8125 -26.875 C 35.457031 -28.851562 34.679688 -30.472656 33.484375 -31.734375 C 32.285156 -32.992188 30.257812 -33.625 27.40625 -33.625 L 27.40625 -35.578125 C 29.539062 -35.578125 31.175781 -36.007812 32.3125 -36.875 C 33.445312 -37.75 34.273438 -38.867188 34.796875 -40.234375 C 35.316406 -41.597656 35.671875 -43.007812 35.859375 -44.46875 C 36.054688 -45.925781 36.253906 -47.238281 36.453125 -48.40625 Z M 38.6875 -48.40625 "/></g></g></g><g fill="#FFFFFF" fill-opacity="1"><g transform="translate(175.710725, 314.367622)"><g><path d="M 27.109375 -51.40625 C 29.179688 -51.40625 31.191406 -51.144531 33.140625 -50.625 C 35.085938 -50.113281 36.835938 -49.335938 38.390625 -48.296875 C 39.878906 -47.328125 41.007812 -46.207031 41.78125 -44.9375 C 42.5625 -43.675781 42.953125 -42.300781 42.953125 -40.8125 C 42.953125 -39.0625 42.46875 -37.71875 41.5 -36.78125 C 40.53125 -35.84375 39.300781 -35.375 37.8125 -35.375 C 36.382812 -35.375 35.132812 -35.796875 34.0625 -36.640625 C 32.988281 -37.484375 32.453125 -38.679688 32.453125 -40.234375 C 32.453125 -41.722656 32.859375 -42.921875 33.671875 -43.828125 C 34.484375 -44.734375 35.441406 -45.316406 36.546875 -45.578125 C 35.898438 -46.742188 34.75 -47.710938 33.09375 -48.484375 C 31.4375 -49.265625 29.671875 -49.65625 27.796875 -49.65625 C 26.171875 -49.65625 24.546875 -49.265625 22.921875 -48.484375 C 21.304688 -47.710938 19.816406 -46.4375 18.453125 -44.65625 C 17.097656 -42.875 16 -40.441406 15.15625 -37.359375 C 14.3125 -34.285156 13.890625 -30.453125 13.890625 -25.859375 C 13.890625 -20.148438 14.535156 -15.609375 15.828125 -12.234375 C 17.128906 -8.867188 18.832031 -6.457031 20.9375 -5 C 23.050781 -3.539062 25.367188 -2.8125 27.890625 -2.8125 C 29.578125 -2.8125 31.296875 -3.132812 33.046875 -3.78125 C 34.796875 -4.4375 36.445312 -5.492188 38 -6.953125 C 39.550781 -8.410156 40.878906 -10.367188 41.984375 -12.828125 L 43.828125 -12.15625 C 43.179688 -10.070312 42.113281 -7.976562 40.625 -5.875 C 39.132812 -3.769531 37.191406 -2.035156 34.796875 -0.671875 C 32.398438 0.679688 29.453125 1.359375 25.953125 1.359375 C 21.929688 1.359375 18.300781 0.320312 15.0625 -1.75 C 11.820312 -3.820312 9.242188 -6.785156 7.328125 -10.640625 C 5.421875 -14.492188 4.46875 -19.078125 4.46875 -24.390625 C 4.46875 -29.703125 5.421875 -34.382812 7.328125 -38.4375 C 9.242188 -42.488281 11.914062 -45.660156 15.34375 -47.953125 C 18.78125 -50.253906 22.703125 -51.40625 27.109375 -51.40625 Z M 27.109375 -51.40625 "/></g></g></g><g fill="#FFFFFF" fill-opacity="1"><g transform="translate(212.542169, 314.367622)"><g><path d="M 48.015625 -50.046875 L 48.015625 -48.109375 C 46.785156 -47.972656 45.648438 -47.421875 44.609375 -46.453125 C 43.566406 -45.484375 42.59375 -43.769531 41.6875 -41.3125 L 25.75 0.484375 L 24.109375 0.484375 L 6.21875 -42.5625 C 4.988281 -45.09375 3.773438 -46.632812 2.578125 -47.1875 C 1.378906 -47.738281 0.390625 -48.015625 -0.390625 -48.015625 L -0.390625 -50.046875 C 1.035156 -49.859375 2.523438 -49.710938 4.078125 -49.609375 C 5.640625 -49.515625 7.328125 -49.46875 9.140625 -49.46875 C 11.148438 -49.46875 13.269531 -49.53125 15.5 -49.65625 C 17.738281 -49.789062 19.828125 -49.921875 21.765625 -50.046875 L 21.765625 -48.015625 C 20.148438 -48.015625 18.707031 -47.898438 17.4375 -47.671875 C 16.175781 -47.441406 15.382812 -46.757812 15.0625 -45.625 C 14.738281 -44.488281 15.128906 -42.5625 16.234375 -39.84375 L 28.1875 -10.203125 L 27.59375 -10.015625 L 38.6875 -38.96875 C 39.519531 -41.101562 39.851562 -42.800781 39.6875 -44.0625 C 39.53125 -45.332031 38.867188 -46.289062 37.703125 -46.9375 C 36.535156 -47.582031 34.785156 -47.972656 32.453125 -48.109375 L 32.453125 -50.046875 C 33.617188 -49.984375 34.625 -49.9375 35.46875 -49.90625 C 36.3125 -49.875 37.140625 -49.84375 37.953125 -49.8125 C 38.765625 -49.78125 39.65625 -49.765625 40.625 -49.765625 C 42.113281 -49.765625 43.457031 -49.796875 44.65625 -49.859375 C 45.851562 -49.921875 46.972656 -49.984375 48.015625 -50.046875 Z M 25.75 0.484375 L 22.453125 8.9375 C 21.804688 10.5625 21.140625 11.921875 20.453125 13.015625 C 19.773438 14.117188 19.046875 15.03125 18.265625 15.75 C 17.234375 16.71875 16.003906 17.378906 14.578125 17.734375 C 13.148438 18.085938 11.851562 18.265625 10.6875 18.265625 C 9.457031 18.265625 8.335938 18.035156 7.328125 17.578125 C 6.328125 17.128906 5.535156 16.46875 4.953125 15.59375 C 4.367188 14.71875 4.078125 13.664062 4.078125 12.4375 C 4.078125 10.882812 4.53125 9.640625 5.4375 8.703125 C 6.34375 7.765625 7.609375 7.296875 9.234375 7.296875 C 10.597656 7.296875 11.765625 7.679688 12.734375 8.453125 C 13.703125 9.234375 14.1875 10.367188 14.1875 11.859375 C 14.1875 12.960938 13.925781 13.867188 13.40625 14.578125 C 12.894531 15.285156 12.28125 15.835938 11.5625 16.234375 C 11.695312 16.296875 11.8125 16.328125 11.90625 16.328125 C 12 16.328125 12.082031 16.328125 12.15625 16.328125 C 13.894531 16.328125 15.445312 15.726562 16.8125 14.53125 C 18.175781 13.332031 19.375 11.40625 20.40625 8.75 L 23.90625 -0.296875 Z M 25.75 0.484375 "/></g></g></g><g fill="#FFFFFF" fill-opacity="1"><g transform="translate(251.122916, 314.367622)"><g><path d="M 27.109375 -51.40625 C 29.179688 -51.40625 31.191406 -51.144531 33.140625 -50.625 C 35.085938 -50.113281 36.835938 -49.335938 38.390625 -48.296875 C 39.878906 -47.328125 41.007812 -46.207031 41.78125 -44.9375 C 42.5625 -43.675781 42.953125 -42.300781 42.953125 -40.8125 C 42.953125 -39.0625 42.46875 -37.71875 41.5 -36.78125 C 40.53125 -35.84375 39.300781 -35.375 37.8125 -35.375 C 36.382812 -35.375 35.132812 -35.796875 34.0625 -36.640625 C 32.988281 -37.484375 32.453125 -38.679688 32.453125 -40.234375 C 32.453125 -41.722656 32.859375 -42.921875 33.671875 -43.828125 C 34.484375 -44.734375 35.441406 -45.316406 36.546875 -45.578125 C 35.898438 -46.742188 34.75 -47.710938 33.09375 -48.484375 C 31.4375 -49.265625 29.671875 -49.65625 27.796875 -49.65625 C 26.171875 -49.65625 24.546875 -49.265625 22.921875 -48.484375 C 21.304688 -47.710938 19.816406 -46.4375 18.453125 -44.65625 C 17.097656 -42.875 16 -40.441406 15.15625 -37.359375 C 14.3125 -34.285156 13.890625 -30.453125 13.890625 -25.859375 C 13.890625 -20.148438 14.535156 -15.609375 15.828125 -12.234375 C 17.128906 -8.867188 18.832031 -6.457031 20.9375 -5 C 23.050781 -3.539062 25.367188 -2.8125 27.890625 -2.8125 C 29.578125 -2.8125 31.296875 -3.132812 33.046875 -3.78125 C 34.796875 -4.4375 36.445312 -5.492188 38 -6.953125 C 39.550781 -8.410156 40.878906 -10.367188 41.984375 -12.828125 L 43.828125 -12.15625 C 43.179688 -10.070312 42.113281 -7.976562 40.625 -5.875 C 39.132812 -3.769531 37.191406 -2.035156 34.796875 -0.671875 C 32.398438 0.679688 29.453125 1.359375 25.953125 1.359375 C 21.929688 1.359375 18.300781 0.320312 15.0625 -1.75 C 11.820312 -3.820312 9.242188 -6.785156 7.328125 -10.640625 C 5.421875 -14.492188 4.46875 -19.078125 4.46875 -24.390625 C 4.46875 -29.703125 5.421875 -34.382812 7.328125 -38.4375 C 9.242188 -42.488281 11.914062 -45.660156 15.34375 -47.953125 C 18.78125 -50.253906 22.703125 -51.40625 27.109375 -51.40625 Z M 27.109375 -51.40625 "/></g></g></g><g fill="#FFFFFF" fill-opacity="1"><g transform="translate(287.954372, 314.367622)"><g><path d="M 18.265625 -76.1875 L 18.265625 -9.03125 C 18.265625 -6.3125 18.832031 -4.46875 19.96875 -3.5 C 21.101562 -2.53125 23 -2.046875 25.65625 -2.046875 L 25.65625 0 C 24.550781 -0.0625 22.878906 -0.140625 20.640625 -0.234375 C 18.410156 -0.335938 16.160156 -0.390625 13.890625 -0.390625 C 11.691406 -0.390625 9.457031 -0.335938 7.1875 -0.234375 C 4.925781 -0.140625 3.242188 -0.0625 2.140625 0 L 2.140625 -2.046875 C 4.796875 -2.046875 6.691406 -2.53125 7.828125 -3.5 C 8.960938 -4.46875 9.53125 -6.3125 9.53125 -9.03125 L 9.53125 -64.53125 C 9.53125 -67.445312 9.007812 -69.597656 7.96875 -70.984375 C 6.9375 -72.378906 4.992188 -73.078125 2.140625 -73.078125 L 2.140625 -75.125 C 4.210938 -74.925781 6.21875 -74.828125 8.15625 -74.828125 C 10.039062 -74.828125 11.84375 -74.941406 13.5625 -75.171875 C 15.28125 -75.398438 16.847656 -75.738281 18.265625 -76.1875 Z M 18.265625 -76.1875 "/></g></g></g><g fill="#FFFFFF" fill-opacity="1"><g transform="translate(305.348993, 314.367622)"><g><path d="M 26.4375 -51.40625 C 32.132812 -51.40625 36.585938 -49.671875 39.796875 -46.203125 C 43.003906 -42.742188 44.609375 -37.351562 44.609375 -30.03125 L 10.296875 -30.03125 L 10.203125 -31.875 L 35.28125 -31.875 C 35.40625 -35.050781 35.144531 -37.984375 34.5 -40.671875 C 33.851562 -43.359375 32.832031 -45.507812 31.4375 -47.125 C 30.039062 -48.75 28.242188 -49.5625 26.046875 -49.5625 C 23.066406 -49.5625 20.425781 -48.070312 18.125 -45.09375 C 15.820312 -42.113281 14.445312 -37.382812 14 -30.90625 L 14.28125 -30.515625 C 14.15625 -29.546875 14.054688 -28.476562 13.984375 -27.3125 C 13.921875 -26.144531 13.890625 -24.976562 13.890625 -23.8125 C 13.890625 -19.40625 14.601562 -15.613281 16.03125 -12.4375 C 17.457031 -9.257812 19.320312 -6.84375 21.625 -5.1875 C 23.925781 -3.539062 26.304688 -2.71875 28.765625 -2.71875 C 30.710938 -2.71875 32.5625 -3.023438 34.3125 -3.640625 C 36.0625 -4.253906 37.679688 -5.273438 39.171875 -6.703125 C 40.660156 -8.128906 41.953125 -10.039062 43.046875 -12.4375 L 45 -11.65625 C 44.28125 -9.519531 43.109375 -7.445312 41.484375 -5.4375 C 39.867188 -3.4375 37.832031 -1.800781 35.375 -0.53125 C 32.914062 0.726562 30.066406 1.359375 26.828125 1.359375 C 22.160156 1.359375 18.15625 0.289062 14.8125 -1.84375 C 11.476562 -3.976562 8.921875 -6.941406 7.140625 -10.734375 C 5.359375 -14.523438 4.46875 -18.882812 4.46875 -23.8125 C 4.46875 -29.507812 5.375 -34.414062 7.1875 -38.53125 C 9 -42.644531 11.554688 -45.816406 14.859375 -48.046875 C 18.171875 -50.285156 22.03125 -51.40625 26.4375 -51.40625 Z M 26.4375 -51.40625 "/></g></g></g></svg>