<svg xmlns="http://www.w3.org/2000/svg" xmlns:xlink="http://www.w3.org/1999/xlink" width="500" zoomAndPan="magnify" viewBox="0 0 375 374.999991" height="500" preserveAspectRatio="xMidYMid meet" version="1.0"><defs><g/></defs><rect x="-37.5" width="450" fill="#ffffff" y="-37.499999" height="449.999989" fill-opacity="1"/><rect x="-37.5" width="450" fill="#efeee7" y="-37.499999" height="449.999989" fill-opacity="1"/><path fill="#3e721d" d="M 245.289062 244.933594 C 243.523438 244.933594 241.820312 244.015625 240.886719 242.378906 L 219.441406 207.058594 C 218.054688 204.632812 218.597656 201.59375 221.023438 200.199219 L 246.128906 185.011719 C 246.917969 184.558594 248.640625 184.167969 249.488281 184.167969 C 251.253906 184.167969 252.894531 185.171875 253.824219 186.808594 L 269.558594 212.742188 L 270.386719 224.046875 C 271.773438 226.472656 265.535156 230.039062 263.105469 231.429688 L 247.789062 244.265625 C 247.003906 244.71875 246.136719 244.933594 245.289062 244.933594 Z M 245.289062 244.933594 " fill-opacity="1" fill-rule="nonzero"/><path fill="#77b255" d="M 209.835938 260.125 C 207.039062 260.125 204.773438 257.859375 204.773438 255.058594 L 204.773438 224.679688 C 204.773438 221.878906 207.039062 219.613281 209.835938 219.613281 L 260.472656 219.613281 C 269.839844 219.613281 268.320312 210.597656 268.320312 210.597656 C 268.320312 210.597656 269.976562 213.441406 270.21875 213.894531 C 271.875 217 272.976562 221.75 270.390625 226.578125 L 254.75 257.578125 C 254.015625 259.039062 252.265625 260.125 250.347656 260.125 Z M 209.835938 260.125 " fill-opacity="1" fill-rule="nonzero"/><path fill="#77b255" d="M 204.773438 275.3125 C 203.457031 275.3125 202.160156 274.796875 201.195312 273.832031 L 170.8125 243.449219 C 168.832031 241.46875 168.832031 238.269531 170.8125 236.289062 L 201.195312 205.90625 C 202.160156 204.941406 203.457031 204.425781 204.773438 204.425781 C 205.425781 204.425781 206.085938 204.546875 206.714844 204.808594 C 208.605469 205.589844 209.835938 207.441406 209.835938 209.488281 L 209.835938 270.25 C 209.835938 272.296875 208.605469 274.148438 206.714844 274.929688 C 206.085938 275.191406 205.425781 275.3125 204.773438 275.3125 Z M 204.773438 275.3125 " fill-opacity="1" fill-rule="nonzero"/><path fill="#3e721d" d="M 197.648438 114.792969 C 198.449219 116.363281 198.410156 118.296875 197.375 119.878906 L 175.636719 155.019531 C 174.105469 157.363281 171.152344 158.253906 168.8125 156.71875 L 143.878906 141.257812 C 143.121094 140.753906 141.984375 139.398438 141.601562 138.644531 C 140.800781 137.074219 140.949219 135.160156 141.980469 133.578125 L 157.941406 107.785156 L 167.632812 101.917969 C 169.167969 99.574219 175.175781 103.511719 177.523438 105.050781 L 195.90625 112.871094 C 196.675781 113.371094 197.265625 114.042969 197.648438 114.792969 Z M 197.648438 114.792969 " fill-opacity="1" fill-rule="nonzero"/><path fill="#77b255" d="M 227.277344 139.484375 C 228.546875 141.980469 227.566406 145.023438 225.0625 146.300781 L 197.988281 160.09375 C 195.496094 161.359375 192.449219 160.371094 191.183594 157.878906 L 168.183594 112.761719 C 163.9375 104.414062 156.589844 109.863281 156.589844 109.863281 C 156.589844 109.863281 158.371094 107.097656 158.664062 106.671875 C 160.683594 103.785156 164.414062 100.65625 169.886719 100.761719 L 204.617188 100.621094 C 206.257812 100.621094 208.015625 101.679688 208.890625 103.390625 Z M 227.277344 139.484375 " fill-opacity="1" fill-rule="nonzero"/><path fill="#77b255" d="M 243.109375 137.105469 C 243.707031 138.273438 243.835938 139.660156 243.414062 140.960938 L 230.140625 181.832031 C 229.28125 184.488281 226.425781 185.941406 223.761719 185.082031 L 182.898438 171.800781 C 181.59375 171.378906 180.550781 170.457031 179.945312 169.289062 C 179.648438 168.710938 179.460938 168.0625 179.40625 167.382812 C 179.242188 165.339844 180.335938 163.402344 182.160156 162.476562 L 236.300781 134.890625 C 238.121094 133.960938 240.324219 134.210938 241.882812 135.550781 C 242.40625 135.984375 242.816406 136.523438 243.109375 137.105469 Z M 243.109375 137.105469 " fill-opacity="1" fill-rule="nonzero"/><path fill="#3e721d" d="M 110.464844 222.359375 C 111.382812 220.855469 113.046875 219.878906 114.929688 219.933594 L 156.253906 219.960938 C 159.054688 220.046875 161.363281 222.085938 161.292969 224.878906 L 161.222656 254.222656 C 161.195312 255.136719 160.632812 256.816406 160.195312 257.535156 C 159.277344 259.039062 157.566406 259.925781 155.683594 259.871094 L 125.351562 259.828125 L 115.261719 254.667969 C 112.46875 254.582031 112.664062 247.402344 112.734375 244.613281 L 109.730469 224.84375 C 109.75 223.9375 110.023438 223.082031 110.464844 222.359375 Z M 110.464844 222.359375 " fill-opacity="1" fill-rule="nonzero"/><path fill="#77b255" d="M 115.914062 184.179688 C 117.367188 181.789062 120.480469 181.03125 122.871094 182.484375 L 148.828125 198.277344 C 151.222656 199.730469 151.976562 202.839844 150.523438 205.234375 L 124.207031 248.492188 C 119.347656 256.492188 127.839844 259.886719 127.839844 259.886719 C 127.839844 259.886719 124.546875 259.8125 124.035156 259.785156 C 120.511719 259.589844 115.886719 258.058594 113.101562 253.347656 L 94.742188 223.878906 C 93.875 222.484375 93.863281 220.425781 94.859375 218.785156 Z M 115.914062 184.179688 " fill-opacity="1" fill-rule="nonzero"/><path fill="#77b255" d="M 105.5625 171.960938 C 106.253906 170.828125 107.359375 169.996094 108.691406 169.664062 L 150.441406 159.503906 C 153.160156 158.835938 155.894531 160.503906 156.558594 163.222656 L 166.722656 204.964844 C 167.046875 206.300781 166.808594 207.667969 166.125 208.800781 C 165.789062 209.351562 165.339844 209.851562 164.785156 210.257812 C 163.136719 211.460938 160.917969 211.554688 159.167969 210.488281 L 107.265625 178.917969 C 105.511719 177.851562 104.574219 175.835938 104.890625 173.816406 C 104.992188 173.136719 105.222656 172.519531 105.5625 171.960938 Z M 105.5625 171.960938 " fill-opacity="1" fill-rule="nonzero"/><g fill="#222222" fill-opacity="1"><g transform="translate(52.219819, 204.939515)"><g><path d="M 20.21875 -56.796875 C 22.851562 -56.796875 24.851562 -56.492188 26.21875 -55.890625 C 27.59375 -55.285156 28.804688 -54.613281 29.859375 -53.875 C 30.492188 -53.507812 31.007812 -53.234375 31.40625 -53.046875 C 31.800781 -52.859375 32.179688 -52.765625 32.546875 -52.765625 C 33.078125 -52.765625 33.457031 -53.054688 33.6875 -53.640625 C 33.925781 -54.222656 34.125 -55.09375 34.28125 -56.25 L 36.109375 -56.25 C 36.054688 -55.351562 35.988281 -54.285156 35.90625 -53.046875 C 35.820312 -51.804688 35.765625 -50.171875 35.734375 -48.140625 C 35.710938 -46.117188 35.703125 -43.445312 35.703125 -40.125 L 33.890625 -40.125 C 33.734375 -42.65625 33.179688 -45.078125 32.234375 -47.390625 C 31.285156 -49.710938 29.898438 -51.609375 28.078125 -53.078125 C 26.265625 -54.554688 23.882812 -55.296875 20.9375 -55.296875 C 18.144531 -55.296875 15.835938 -54.453125 14.015625 -52.765625 C 12.203125 -51.085938 11.296875 -48.878906 11.296875 -46.140625 C 11.296875 -43.765625 11.898438 -41.773438 13.109375 -40.171875 C 14.328125 -38.566406 15.945312 -37.117188 17.96875 -35.828125 C 20 -34.535156 22.195312 -33.148438 24.5625 -31.671875 C 27.300781 -29.992188 29.738281 -28.320312 31.875 -26.65625 C 34.007812 -25 35.691406 -23.171875 36.921875 -21.171875 C 38.160156 -19.171875 38.78125 -16.75 38.78125 -13.90625 C 38.78125 -10.53125 38.015625 -7.738281 36.484375 -5.53125 C 34.960938 -3.320312 32.9375 -1.660156 30.40625 -0.546875 C 27.882812 0.554688 25.097656 1.109375 22.046875 1.109375 C 19.253906 1.109375 17.039062 0.789062 15.40625 0.15625 C 13.769531 -0.476562 12.375 -1.132812 11.21875 -1.8125 C 10.0625 -2.550781 9.164062 -2.921875 8.53125 -2.921875 C 8 -2.921875 7.613281 -2.628906 7.375 -2.046875 C 7.144531 -1.472656 6.953125 -0.609375 6.796875 0.546875 L 4.984375 0.546875 C 5.085938 -0.554688 5.148438 -1.859375 5.171875 -3.359375 C 5.203125 -4.859375 5.226562 -6.816406 5.25 -9.234375 C 5.28125 -11.660156 5.296875 -14.71875 5.296875 -18.40625 L 7.109375 -18.40625 C 7.316406 -15.25 7.90625 -12.300781 8.875 -9.5625 C 9.851562 -6.820312 11.359375 -4.617188 13.390625 -2.953125 C 15.421875 -1.296875 18.117188 -0.46875 21.484375 -0.46875 C 23.222656 -0.46875 24.867188 -0.820312 26.421875 -1.53125 C 27.972656 -2.25 29.25 -3.382812 30.25 -4.9375 C 31.257812 -6.488281 31.765625 -8.503906 31.765625 -10.984375 C 31.765625 -13.140625 31.25 -15.019531 30.21875 -16.625 C 29.1875 -18.226562 27.75 -19.726562 25.90625 -21.125 C 24.0625 -22.519531 21.90625 -23.957031 19.4375 -25.4375 C 16.957031 -26.96875 14.640625 -28.519531 12.484375 -30.09375 C 10.328125 -31.675781 8.601562 -33.503906 7.3125 -35.578125 C 6.019531 -37.660156 5.375 -40.179688 5.375 -43.140625 C 5.375 -46.242188 6.070312 -48.804688 7.46875 -50.828125 C 8.863281 -52.859375 10.691406 -54.359375 12.953125 -55.328125 C 15.222656 -56.304688 17.644531 -56.796875 20.21875 -56.796875 Z M 20.21875 -56.796875 "/></g></g></g><g fill="#222222" fill-opacity="1"><g transform="translate(86.423996, 204.939515)"><g><path d="M 36.34375 0 L 36.34375 -1.578125 C 38.132812 -1.679688 39.488281 -1.890625 40.40625 -2.203125 C 41.332031 -2.523438 41.953125 -3.160156 42.265625 -4.109375 C 42.578125 -5.054688 42.734375 -6.476562 42.734375 -8.375 L 42.734375 -47.5625 C 42.734375 -49.507812 42.578125 -50.941406 42.265625 -51.859375 C 41.953125 -52.785156 41.332031 -53.414062 40.40625 -53.75 C 39.488281 -54.09375 38.132812 -54.296875 36.34375 -54.359375 L 36.34375 -55.9375 C 37.550781 -55.882812 39.078125 -55.828125 40.921875 -55.765625 C 42.765625 -55.710938 44.582031 -55.6875 46.375 -55.6875 C 48.425781 -55.6875 50.347656 -55.710938 52.140625 -55.765625 C 53.929688 -55.828125 55.378906 -55.882812 56.484375 -55.9375 L 56.484375 -54.359375 C 54.691406 -54.296875 53.332031 -54.09375 52.40625 -53.75 C 51.488281 -53.414062 50.875 -52.785156 50.5625 -51.859375 C 50.25 -50.941406 50.09375 -49.507812 50.09375 -47.5625 L 50.09375 -8.375 C 50.09375 -6.476562 50.25 -5.054688 50.5625 -4.109375 C 50.875 -3.160156 51.488281 -2.523438 52.40625 -2.203125 C 53.332031 -1.890625 54.691406 -1.679688 56.484375 -1.578125 L 56.484375 0 C 55.378906 -0.101562 53.929688 -0.164062 52.140625 -0.1875 C 50.347656 -0.21875 48.425781 -0.234375 46.375 -0.234375 C 44.582031 -0.234375 42.765625 -0.21875 40.921875 -0.1875 C 39.078125 -0.164062 37.550781 -0.101562 36.34375 0 Z M 3.3125 0 L 3.3125 -1.578125 C 5.101562 -1.679688 6.457031 -1.890625 7.375 -2.203125 C 8.300781 -2.523438 8.921875 -3.160156 9.234375 -4.109375 C 9.554688 -5.054688 9.71875 -6.476562 9.71875 -8.375 L 9.71875 -47.5625 C 9.71875 -49.507812 9.554688 -50.941406 9.234375 -51.859375 C 8.921875 -52.785156 8.300781 -53.414062 7.375 -53.75 C 6.457031 -54.09375 5.101562 -54.296875 3.3125 -54.359375 L 3.3125 -55.9375 C 4.425781 -55.882812 5.875 -55.828125 7.65625 -55.765625 C 9.445312 -55.710938 11.375 -55.6875 13.4375 -55.6875 C 15.269531 -55.6875 17.09375 -55.710938 18.90625 -55.765625 C 20.726562 -55.828125 22.25 -55.882812 23.46875 -55.9375 L 23.46875 -54.359375 C 21.675781 -54.296875 20.316406 -54.09375 19.390625 -53.75 C 18.472656 -53.414062 17.851562 -52.785156 17.53125 -51.859375 C 17.21875 -50.941406 17.0625 -49.507812 17.0625 -47.5625 L 17.0625 -8.375 C 17.0625 -6.476562 17.21875 -5.054688 17.53125 -4.109375 C 17.851562 -3.160156 18.472656 -2.523438 19.390625 -2.203125 C 20.316406 -1.890625 21.675781 -1.679688 23.46875 -1.578125 L 23.46875 0 C 22.25 -0.101562 20.726562 -0.164062 18.90625 -0.1875 C 17.09375 -0.21875 15.269531 -0.234375 13.4375 -0.234375 C 11.375 -0.234375 9.445312 -0.21875 7.65625 -0.1875 C 5.875 -0.164062 4.425781 -0.101562 3.3125 0 Z M 14.296875 -27.328125 L 14.296875 -28.90625 L 45.5 -28.90625 L 45.5 -27.328125 Z M 14.296875 -27.328125 "/></g></g></g><g fill="#222222" fill-opacity="1"><g transform="translate(137.770313, 204.939515)"><g><path d="M 42.734375 -55.9375 C 42.523438 -54.09375 42.378906 -52.300781 42.296875 -50.5625 C 42.222656 -48.820312 42.1875 -47.503906 42.1875 -46.609375 C 42.1875 -45.660156 42.210938 -44.75 42.265625 -43.875 C 42.316406 -43.007812 42.367188 -42.289062 42.421875 -41.71875 L 40.609375 -41.71875 C 40.285156 -44.820312 39.832031 -47.28125 39.25 -49.09375 C 38.675781 -50.914062 37.691406 -52.207031 36.296875 -52.96875 C 34.898438 -53.726562 32.804688 -54.109375 30.015625 -54.109375 L 23.46875 -54.109375 C 21.675781 -54.109375 20.316406 -53.960938 19.390625 -53.671875 C 18.472656 -53.390625 17.851562 -52.785156 17.53125 -51.859375 C 17.21875 -50.941406 17.0625 -49.507812 17.0625 -47.5625 L 17.0625 -8.375 C 17.0625 -6.476562 17.21875 -5.054688 17.53125 -4.109375 C 17.851562 -3.160156 18.472656 -2.539062 19.390625 -2.25 C 20.316406 -1.957031 21.675781 -1.8125 23.46875 -1.8125 L 29.234375 -1.8125 C 32.546875 -1.8125 35.054688 -2.257812 36.765625 -3.15625 C 38.484375 -4.050781 39.722656 -5.515625 40.484375 -7.546875 C 41.253906 -9.578125 41.820312 -12.328125 42.1875 -15.796875 L 44 -15.796875 C 43.84375 -14.378906 43.765625 -12.484375 43.765625 -10.109375 C 43.765625 -9.109375 43.800781 -7.671875 43.875 -5.796875 C 43.957031 -3.929688 44.101562 -2 44.3125 0 C 41.632812 -0.101562 38.609375 -0.164062 35.234375 -0.1875 C 31.859375 -0.21875 28.859375 -0.234375 26.234375 -0.234375 C 25.066406 -0.234375 23.570312 -0.234375 21.75 -0.234375 C 19.9375 -0.234375 17.976562 -0.21875 15.875 -0.1875 C 13.769531 -0.164062 11.632812 -0.140625 9.46875 -0.109375 C 7.3125 -0.0859375 5.257812 -0.0507812 3.3125 0 L 3.3125 -1.578125 C 5.101562 -1.679688 6.457031 -1.890625 7.375 -2.203125 C 8.300781 -2.523438 8.921875 -3.160156 9.234375 -4.109375 C 9.554688 -5.054688 9.71875 -6.476562 9.71875 -8.375 L 9.71875 -47.5625 C 9.71875 -49.507812 9.554688 -50.941406 9.234375 -51.859375 C 8.921875 -52.785156 8.300781 -53.414062 7.375 -53.75 C 6.457031 -54.09375 5.101562 -54.296875 3.3125 -54.359375 L 3.3125 -55.9375 C 5.257812 -55.882812 7.3125 -55.84375 9.46875 -55.8125 C 11.632812 -55.789062 13.769531 -55.765625 15.875 -55.734375 C 17.976562 -55.703125 19.9375 -55.6875 21.75 -55.6875 C 23.570312 -55.6875 25.066406 -55.6875 26.234375 -55.6875 C 28.648438 -55.6875 31.398438 -55.703125 34.484375 -55.734375 C 37.566406 -55.765625 40.316406 -55.832031 42.734375 -55.9375 Z M 29.15625 -28.90625 C 29.15625 -28.90625 29.15625 -28.640625 29.15625 -28.109375 C 29.15625 -27.585938 29.15625 -27.328125 29.15625 -27.328125 L 14.6875 -27.328125 C 14.6875 -27.328125 14.6875 -27.585938 14.6875 -28.109375 C 14.6875 -28.640625 14.6875 -28.90625 14.6875 -28.90625 Z M 31.4375 -39.34375 C 31.226562 -36.34375 31.132812 -34.050781 31.15625 -32.46875 C 31.1875 -30.882812 31.203125 -29.4375 31.203125 -28.125 C 31.203125 -26.8125 31.226562 -25.363281 31.28125 -23.78125 C 31.332031 -22.195312 31.460938 -19.90625 31.671875 -16.90625 L 29.859375 -16.90625 C 29.648438 -18.59375 29.398438 -20.238281 29.109375 -21.84375 C 28.816406 -23.445312 28.179688 -24.757812 27.203125 -25.78125 C 26.234375 -26.8125 24.59375 -27.328125 22.28125 -27.328125 L 22.28125 -28.90625 C 24.019531 -28.90625 25.347656 -29.257812 26.265625 -29.96875 C 27.191406 -30.6875 27.863281 -31.597656 28.28125 -32.703125 C 28.695312 -33.804688 28.984375 -34.953125 29.140625 -36.140625 C 29.304688 -37.328125 29.46875 -38.394531 29.625 -39.34375 Z M 31.4375 -39.34375 "/></g></g></g><g fill="#222222" fill-opacity="1"><g transform="translate(177.425222, 204.939515)"><g><path d="M 22.046875 -41.796875 C 23.722656 -41.796875 25.351562 -41.582031 26.9375 -41.15625 C 28.519531 -40.738281 29.941406 -40.109375 31.203125 -39.265625 C 32.410156 -38.472656 33.332031 -37.5625 33.96875 -36.53125 C 34.601562 -35.507812 34.921875 -34.394531 34.921875 -33.1875 C 34.921875 -31.757812 34.523438 -30.660156 33.734375 -29.890625 C 32.941406 -29.128906 31.941406 -28.75 30.734375 -28.75 C 29.578125 -28.75 28.5625 -29.09375 27.6875 -29.78125 C 26.820312 -30.46875 26.390625 -31.441406 26.390625 -32.703125 C 26.390625 -33.910156 26.71875 -34.882812 27.375 -35.625 C 28.03125 -36.363281 28.804688 -36.835938 29.703125 -37.046875 C 29.171875 -37.992188 28.234375 -38.785156 26.890625 -39.421875 C 25.554688 -40.054688 24.125 -40.375 22.59375 -40.375 C 21.28125 -40.375 19.960938 -40.054688 18.640625 -39.421875 C 17.328125 -38.785156 16.113281 -37.742188 15 -36.296875 C 13.894531 -34.847656 13 -32.875 12.3125 -30.375 C 11.632812 -27.875 11.296875 -24.753906 11.296875 -21.015625 C 11.296875 -16.378906 11.820312 -12.691406 12.875 -9.953125 C 13.925781 -7.210938 15.304688 -5.25 17.015625 -4.0625 C 18.734375 -2.882812 20.617188 -2.296875 22.671875 -2.296875 C 24.046875 -2.296875 25.441406 -2.554688 26.859375 -3.078125 C 28.285156 -3.609375 29.628906 -4.460938 30.890625 -5.640625 C 32.148438 -6.828125 33.226562 -8.421875 34.125 -10.421875 L 35.625 -9.875 C 35.101562 -8.1875 34.234375 -6.488281 33.015625 -4.78125 C 31.804688 -3.070312 30.226562 -1.660156 28.28125 -0.546875 C 26.332031 0.554688 23.9375 1.109375 21.09375 1.109375 C 17.820312 1.109375 14.867188 0.265625 12.234375 -1.421875 C 9.609375 -3.109375 7.519531 -5.515625 5.96875 -8.640625 C 4.414062 -11.773438 3.640625 -15.503906 3.640625 -19.828125 C 3.640625 -24.148438 4.414062 -27.957031 5.96875 -31.25 C 7.519531 -34.539062 9.691406 -37.117188 12.484375 -38.984375 C 15.273438 -40.859375 18.460938 -41.796875 22.046875 -41.796875 Z M 22.046875 -41.796875 "/></g></g></g><g fill="#222222" fill-opacity="1"><g transform="translate(207.363617, 204.939515)"><g><path d="M 39.03125 -40.6875 L 39.03125 -39.109375 C 38.03125 -39.003906 37.109375 -38.554688 36.265625 -37.765625 C 35.421875 -36.972656 34.628906 -35.578125 33.890625 -33.578125 L 20.9375 0.390625 L 19.59375 0.390625 L 5.0625 -34.609375 C 4.0625 -36.660156 3.070312 -37.910156 2.09375 -38.359375 C 1.113281 -38.804688 0.3125 -39.03125 -0.3125 -39.03125 L -0.3125 -40.6875 C 0.84375 -40.53125 2.050781 -40.410156 3.3125 -40.328125 C 4.582031 -40.253906 5.953125 -40.21875 7.421875 -40.21875 C 9.054688 -40.21875 10.78125 -40.269531 12.59375 -40.375 C 14.414062 -40.476562 16.117188 -40.582031 17.703125 -40.6875 L 17.703125 -39.03125 C 16.378906 -39.03125 15.203125 -38.9375 14.171875 -38.75 C 13.148438 -38.5625 12.503906 -38.003906 12.234375 -37.078125 C 11.972656 -36.160156 12.289062 -34.597656 13.1875 -32.390625 L 22.90625 -8.296875 L 22.4375 -8.140625 L 31.4375 -31.671875 C 32.125 -33.410156 32.398438 -34.789062 32.265625 -35.8125 C 32.140625 -36.84375 31.601562 -37.625 30.65625 -38.15625 C 29.707031 -38.6875 28.285156 -39.003906 26.390625 -39.109375 L 26.390625 -40.6875 C 27.335938 -40.632812 28.148438 -40.59375 28.828125 -40.5625 C 29.515625 -40.539062 30.1875 -40.515625 30.84375 -40.484375 C 31.507812 -40.460938 32.234375 -40.453125 33.015625 -40.453125 C 34.234375 -40.453125 35.328125 -40.476562 36.296875 -40.53125 C 37.273438 -40.582031 38.1875 -40.632812 39.03125 -40.6875 Z M 20.9375 0.390625 L 18.25 7.265625 C 17.71875 8.585938 17.175781 9.691406 16.625 10.578125 C 16.070312 11.472656 15.484375 12.210938 14.859375 12.796875 C 14.015625 13.585938 13.007812 14.128906 11.84375 14.421875 C 10.6875 14.710938 9.632812 14.859375 8.6875 14.859375 C 7.6875 14.859375 6.773438 14.671875 5.953125 14.296875 C 5.140625 13.929688 4.492188 13.390625 4.015625 12.671875 C 3.546875 11.960938 3.3125 11.109375 3.3125 10.109375 C 3.3125 8.847656 3.679688 7.832031 4.421875 7.0625 C 5.160156 6.300781 6.1875 5.921875 7.5 5.921875 C 8.601562 5.921875 9.550781 6.238281 10.34375 6.875 C 11.132812 7.507812 11.53125 8.429688 11.53125 9.640625 C 11.53125 10.535156 11.316406 11.269531 10.890625 11.84375 C 10.472656 12.425781 9.976562 12.875 9.40625 13.1875 C 9.507812 13.238281 9.597656 13.265625 9.671875 13.265625 C 9.753906 13.265625 9.820312 13.265625 9.875 13.265625 C 11.300781 13.265625 12.566406 12.773438 13.671875 11.796875 C 14.773438 10.828125 15.75 9.265625 16.59375 7.109375 L 19.4375 -0.234375 Z M 20.9375 0.390625 "/></g></g></g><g fill="#222222" fill-opacity="1"><g transform="translate(238.723939, 204.939515)"><g><path d="M 22.046875 -41.796875 C 23.722656 -41.796875 25.351562 -41.582031 26.9375 -41.15625 C 28.519531 -40.738281 29.941406 -40.109375 31.203125 -39.265625 C 32.410156 -38.472656 33.332031 -37.5625 33.96875 -36.53125 C 34.601562 -35.507812 34.921875 -34.394531 34.921875 -33.1875 C 34.921875 -31.757812 34.523438 -30.660156 33.734375 -29.890625 C 32.941406 -29.128906 31.941406 -28.75 30.734375 -28.75 C 29.578125 -28.75 28.5625 -29.09375 27.6875 -29.78125 C 26.820312 -30.46875 26.390625 -31.441406 26.390625 -32.703125 C 26.390625 -33.910156 26.71875 -34.882812 27.375 -35.625 C 28.03125 -36.363281 28.804688 -36.835938 29.703125 -37.046875 C 29.171875 -37.992188 28.234375 -38.785156 26.890625 -39.421875 C 25.554688 -40.054688 24.125 -40.375 22.59375 -40.375 C 21.28125 -40.375 19.960938 -40.054688 18.640625 -39.421875 C 17.328125 -38.785156 16.113281 -37.742188 15 -36.296875 C 13.894531 -34.847656 13 -32.875 12.3125 -30.375 C 11.632812 -27.875 11.296875 -24.753906 11.296875 -21.015625 C 11.296875 -16.378906 11.820312 -12.691406 12.875 -9.953125 C 13.925781 -7.210938 15.304688 -5.25 17.015625 -4.0625 C 18.734375 -2.882812 20.617188 -2.296875 22.671875 -2.296875 C 24.046875 -2.296875 25.441406 -2.554688 26.859375 -3.078125 C 28.285156 -3.609375 29.628906 -4.460938 30.890625 -5.640625 C 32.148438 -6.828125 33.226562 -8.421875 34.125 -10.421875 L 35.625 -9.875 C 35.101562 -8.1875 34.234375 -6.488281 33.015625 -4.78125 C 31.804688 -3.070312 30.226562 -1.660156 28.28125 -0.546875 C 26.332031 0.554688 23.9375 1.109375 21.09375 1.109375 C 17.820312 1.109375 14.867188 0.265625 12.234375 -1.421875 C 9.609375 -3.109375 7.519531 -5.515625 5.96875 -8.640625 C 4.414062 -11.773438 3.640625 -15.503906 3.640625 -19.828125 C 3.640625 -24.148438 4.414062 -27.957031 5.96875 -31.25 C 7.519531 -34.539062 9.691406 -37.117188 12.484375 -38.984375 C 15.273438 -40.859375 18.460938 -41.796875 22.046875 -41.796875 Z M 22.046875 -41.796875 "/></g></g></g><g fill="#222222" fill-opacity="1"><g transform="translate(268.662322, 204.939515)"><g><path d="M 14.859375 -61.9375 L 14.859375 -7.34375 C 14.859375 -5.132812 15.316406 -3.632812 16.234375 -2.84375 C 17.148438 -2.050781 18.691406 -1.65625 20.859375 -1.65625 L 20.859375 0 C 19.960938 -0.0507812 18.601562 -0.113281 16.78125 -0.1875 C 14.96875 -0.269531 13.140625 -0.3125 11.296875 -0.3125 C 9.503906 -0.3125 7.6875 -0.269531 5.84375 -0.1875 C 4 -0.113281 2.628906 -0.0507812 1.734375 0 L 1.734375 -1.65625 C 3.898438 -1.65625 5.441406 -2.050781 6.359375 -2.84375 C 7.273438 -3.632812 7.734375 -5.132812 7.734375 -7.34375 L 7.734375 -52.453125 C 7.734375 -54.828125 7.3125 -56.578125 6.46875 -57.703125 C 5.632812 -58.835938 4.054688 -59.40625 1.734375 -59.40625 L 1.734375 -61.0625 C 3.421875 -60.90625 5.054688 -60.828125 6.640625 -60.828125 C 8.160156 -60.828125 9.617188 -60.921875 11.015625 -61.109375 C 12.410156 -61.296875 13.691406 -61.570312 14.859375 -61.9375 Z M 14.859375 -61.9375 "/></g></g></g><g fill="#222222" fill-opacity="1"><g transform="translate(282.801497, 204.939515)"><g><path d="M 21.484375 -41.796875 C 26.117188 -41.796875 29.738281 -40.382812 32.34375 -37.5625 C 34.957031 -34.75 36.265625 -30.363281 36.265625 -24.40625 L 8.375 -24.40625 L 8.296875 -25.90625 L 28.671875 -25.90625 C 28.773438 -28.488281 28.5625 -30.875 28.03125 -33.0625 C 27.507812 -35.25 26.679688 -37 25.546875 -38.3125 C 24.421875 -39.632812 22.960938 -40.296875 21.171875 -40.296875 C 18.742188 -40.296875 16.59375 -39.082031 14.71875 -36.65625 C 12.851562 -34.226562 11.738281 -30.382812 11.375 -25.125 L 11.609375 -24.8125 C 11.503906 -24.019531 11.425781 -23.148438 11.375 -22.203125 C 11.320312 -21.253906 11.296875 -20.304688 11.296875 -19.359375 C 11.296875 -15.773438 11.875 -12.691406 13.03125 -10.109375 C 14.1875 -7.523438 15.695312 -5.5625 17.5625 -4.21875 C 19.4375 -2.882812 21.378906 -2.21875 23.390625 -2.21875 C 24.960938 -2.21875 26.457031 -2.46875 27.875 -2.96875 C 29.300781 -3.46875 30.617188 -4.296875 31.828125 -5.453125 C 33.046875 -6.609375 34.101562 -8.160156 35 -10.109375 L 36.578125 -9.484375 C 35.992188 -7.742188 35.046875 -6.054688 33.734375 -4.421875 C 32.421875 -2.785156 30.757812 -1.453125 28.75 -0.421875 C 26.75 0.597656 24.429688 1.109375 21.796875 1.109375 C 18.003906 1.109375 14.753906 0.238281 12.046875 -1.5 C 9.335938 -3.238281 7.257812 -5.644531 5.8125 -8.71875 C 4.363281 -11.800781 3.640625 -15.347656 3.640625 -19.359375 C 3.640625 -23.992188 4.375 -27.984375 5.84375 -31.328125 C 7.320312 -34.671875 9.398438 -37.25 12.078125 -39.0625 C 14.765625 -40.882812 17.898438 -41.796875 21.484375 -41.796875 Z M 21.484375 -41.796875 "/></g></g></g><g fill="#222222" fill-opacity="1"><g transform="translate(105.735719, 245.490188)"><g><path d="M 5.296875 -13.484375 C 5.972656 -13.484375 6.550781 -13.367188 7.03125 -13.140625 C 7.507812 -12.921875 7.859375 -12.71875 8.078125 -12.53125 C 8.640625 -12.070312 8.976562 -12.378906 9.09375 -13.453125 L 9.6875 -13.453125 C 9.65625 -12.972656 9.628906 -12.40625 9.609375 -11.75 C 9.585938 -11.101562 9.578125 -10.226562 9.578125 -9.125 L 9 -9.125 C 8.894531 -9.75 8.71875 -10.359375 8.46875 -10.953125 C 8.226562 -11.546875 7.867188 -12.035156 7.390625 -12.421875 C 6.910156 -12.804688 6.289062 -13 5.53125 -13 C 4.9375 -13 4.4375 -12.832031 4.03125 -12.5 C 3.632812 -12.164062 3.4375 -11.675781 3.4375 -11.03125 C 3.4375 -10.519531 3.585938 -10.082031 3.890625 -9.71875 C 4.203125 -9.351562 4.601562 -9.015625 5.09375 -8.703125 C 5.582031 -8.390625 6.117188 -8.046875 6.703125 -7.671875 C 7.347656 -7.265625 7.929688 -6.847656 8.453125 -6.421875 C 8.984375 -5.992188 9.40625 -5.523438 9.71875 -5.015625 C 10.03125 -4.503906 10.1875 -3.90625 10.1875 -3.21875 C 10.1875 -2.425781 9.984375 -1.765625 9.578125 -1.234375 C 9.171875 -0.710938 8.640625 -0.316406 7.984375 -0.046875 C 7.335938 0.222656 6.617188 0.359375 5.828125 0.359375 C 5.460938 0.359375 5.113281 0.328125 4.78125 0.265625 C 4.445312 0.203125 4.128906 0.113281 3.828125 0 C 3.648438 -0.0820312 3.472656 -0.179688 3.296875 -0.296875 C 3.117188 -0.421875 2.945312 -0.550781 2.78125 -0.6875 C 2.601562 -0.820312 2.445312 -0.816406 2.3125 -0.671875 C 2.175781 -0.523438 2.078125 -0.242188 2.015625 0.171875 L 1.421875 0.171875 C 1.460938 -0.367188 1.488281 -1.03125 1.5 -1.8125 C 1.519531 -2.59375 1.53125 -3.628906 1.53125 -4.921875 L 2.109375 -4.921875 C 2.234375 -3.960938 2.40625 -3.125 2.625 -2.40625 C 2.84375 -1.695312 3.191406 -1.144531 3.671875 -0.75 C 4.148438 -0.351562 4.8125 -0.15625 5.65625 -0.15625 C 6 -0.15625 6.34375 -0.226562 6.6875 -0.375 C 7.039062 -0.53125 7.332031 -0.785156 7.5625 -1.140625 C 7.800781 -1.503906 7.921875 -1.984375 7.921875 -2.578125 C 7.921875 -3.316406 7.648438 -3.925781 7.109375 -4.40625 C 6.566406 -4.882812 5.878906 -5.382812 5.046875 -5.90625 C 4.429688 -6.300781 3.851562 -6.691406 3.3125 -7.078125 C 2.78125 -7.472656 2.347656 -7.914062 2.015625 -8.40625 C 1.691406 -8.90625 1.53125 -9.5 1.53125 -10.1875 C 1.53125 -10.957031 1.703125 -11.582031 2.046875 -12.0625 C 2.398438 -12.550781 2.863281 -12.910156 3.4375 -13.140625 C 4.019531 -13.367188 4.640625 -13.484375 5.296875 -13.484375 Z M 5.296875 -13.484375 "/></g></g></g><g fill="#222222" fill-opacity="1"><g transform="translate(114.727978, 245.490188)"><g><path d="M 5.5625 -13.125 L 5.5625 -12.59375 C 5.132812 -12.59375 4.757812 -12.5625 4.4375 -12.5 C 4.113281 -12.4375 3.898438 -12.257812 3.796875 -11.96875 C 3.691406 -11.6875 3.769531 -11.179688 4.03125 -10.453125 L 6.671875 -2.859375 L 6.5 -2.875 L 10.25 -13.21875 L 10.75 -13.015625 L 6.09375 0.125 C 6.019531 0.125 5.945312 0.125 5.875 0.125 C 5.8125 0.125 5.738281 0.125 5.65625 0.125 L 1.484375 -11.15625 C 1.210938 -11.84375 0.941406 -12.253906 0.671875 -12.390625 C 0.410156 -12.523438 0.1875 -12.59375 0 -12.59375 L 0 -13.125 C 0.34375 -13.070312 0.695312 -13.03125 1.0625 -13 C 1.425781 -12.976562 1.820312 -12.96875 2.25 -12.96875 C 2.769531 -12.96875 3.320312 -12.984375 3.90625 -13.015625 C 4.5 -13.054688 5.050781 -13.09375 5.5625 -13.125 Z M 19.546875 -13.125 L 19.546875 -12.609375 C 19.222656 -12.578125 18.921875 -12.4375 18.640625 -12.1875 C 18.359375 -11.945312 18.109375 -11.492188 17.890625 -10.828125 L 14.1875 0.125 C 14.125 0.125 14.054688 0.125 13.984375 0.125 C 13.921875 0.125 13.847656 0.125 13.765625 0.125 L 9.65625 -10.296875 L 10.25 -13.21875 C 10.34375 -13.21875 10.4375 -13.21875 10.53125 -13.21875 C 10.625 -13.21875 10.722656 -13.21875 10.828125 -13.21875 L 14.8125 -2.703125 L 14.609375 -2.546875 L 17.125 -10.21875 C 17.3125 -10.789062 17.382812 -11.242188 17.34375 -11.578125 C 17.300781 -11.910156 17.128906 -12.15625 16.828125 -12.3125 C 16.535156 -12.476562 16.082031 -12.578125 15.46875 -12.609375 L 15.46875 -13.125 C 15.769531 -13.101562 16.03125 -13.085938 16.25 -13.078125 C 16.476562 -13.078125 16.695312 -13.070312 16.90625 -13.0625 C 17.125 -13.050781 17.359375 -13.046875 17.609375 -13.046875 C 18.003906 -13.046875 18.359375 -13.050781 18.671875 -13.0625 C 18.984375 -13.082031 19.273438 -13.101562 19.546875 -13.125 Z M 19.546875 -13.125 "/></g></g></g><g fill="#222222" fill-opacity="1"><g transform="translate(131.949144, 245.490188)"><g><path d="M 4.359375 0.171875 C 3.660156 0.171875 3.054688 0.0390625 2.546875 -0.21875 C 2.035156 -0.476562 1.648438 -0.84375 1.390625 -1.3125 C 1.128906 -1.789062 1 -2.347656 1 -2.984375 C 1 -3.734375 1.171875 -4.34375 1.515625 -4.8125 C 1.859375 -5.289062 2.300781 -5.671875 2.84375 -5.953125 C 3.394531 -6.242188 3.972656 -6.488281 4.578125 -6.6875 C 5.179688 -6.882812 5.753906 -7.070312 6.296875 -7.25 C 6.835938 -7.425781 7.28125 -7.632812 7.625 -7.875 C 7.976562 -8.113281 8.15625 -8.425781 8.15625 -8.8125 L 8.15625 -10.390625 C 8.15625 -11.109375 8.046875 -11.65625 7.828125 -12.03125 C 7.617188 -12.40625 7.335938 -12.65625 6.984375 -12.78125 C 6.628906 -12.90625 6.226562 -12.96875 5.78125 -12.96875 C 5.351562 -12.96875 4.894531 -12.90625 4.40625 -12.78125 C 3.925781 -12.664062 3.546875 -12.421875 3.265625 -12.046875 C 3.585938 -11.984375 3.863281 -11.816406 4.09375 -11.546875 C 4.332031 -11.273438 4.453125 -10.925781 4.453125 -10.5 C 4.453125 -10.070312 4.316406 -9.734375 4.046875 -9.484375 C 3.773438 -9.242188 3.425781 -9.125 3 -9.125 C 2.507812 -9.125 2.148438 -9.28125 1.921875 -9.59375 C 1.691406 -9.90625 1.578125 -10.257812 1.578125 -10.65625 C 1.578125 -11.09375 1.6875 -11.445312 1.90625 -11.71875 C 2.132812 -11.988281 2.414062 -12.242188 2.75 -12.484375 C 3.144531 -12.753906 3.648438 -12.988281 4.265625 -13.1875 C 4.890625 -13.382812 5.59375 -13.484375 6.375 -13.484375 C 7.070312 -13.484375 7.664062 -13.398438 8.15625 -13.234375 C 8.644531 -13.078125 9.050781 -12.84375 9.375 -12.53125 C 9.820312 -12.125 10.113281 -11.628906 10.25 -11.046875 C 10.382812 -10.460938 10.453125 -9.757812 10.453125 -8.9375 L 10.453125 -1.859375 C 10.453125 -1.429688 10.515625 -1.125 10.640625 -0.9375 C 10.765625 -0.75 10.960938 -0.65625 11.234375 -0.65625 C 11.421875 -0.65625 11.597656 -0.695312 11.765625 -0.78125 C 11.941406 -0.875 12.148438 -1.015625 12.390625 -1.203125 L 12.671875 -0.765625 C 12.304688 -0.492188 11.960938 -0.269531 11.640625 -0.09375 C 11.316406 0.0820312 10.882812 0.171875 10.34375 0.171875 C 9.851562 0.171875 9.445312 0.0859375 9.125 -0.078125 C 8.800781 -0.242188 8.554688 -0.492188 8.390625 -0.828125 C 8.234375 -1.160156 8.15625 -1.582031 8.15625 -2.09375 C 7.695312 -1.320312 7.148438 -0.75 6.515625 -0.375 C 5.878906 -0.0078125 5.160156 0.171875 4.359375 0.171875 Z M 5.28125 -0.84375 C 5.832031 -0.84375 6.347656 -1.003906 6.828125 -1.328125 C 7.316406 -1.648438 7.757812 -2.132812 8.15625 -2.78125 L 8.15625 -7.765625 C 7.945312 -7.484375 7.644531 -7.242188 7.25 -7.046875 C 6.863281 -6.847656 6.441406 -6.648438 5.984375 -6.453125 C 5.523438 -6.265625 5.085938 -6.035156 4.671875 -5.765625 C 4.253906 -5.503906 3.910156 -5.160156 3.640625 -4.734375 C 3.367188 -4.316406 3.234375 -3.765625 3.234375 -3.078125 C 3.234375 -2.398438 3.414062 -1.859375 3.78125 -1.453125 C 4.144531 -1.046875 4.644531 -0.84375 5.28125 -0.84375 Z M 5.28125 -0.84375 "/></g></g></g><g fill="#222222" fill-opacity="1"><g transform="translate(142.24071, 245.490188)"><g><path d="M 4.796875 -13.40625 L 4.796875 2.25 C 4.796875 2.976562 5.007812 3.460938 5.4375 3.703125 C 5.875 3.953125 6.472656 4.078125 7.234375 4.078125 L 7.234375 4.609375 C 6.859375 4.597656 6.335938 4.578125 5.671875 4.546875 C 5.015625 4.523438 4.3125 4.515625 3.5625 4.515625 C 3.039062 4.515625 2.519531 4.523438 2 4.546875 C 1.476562 4.578125 1.082031 4.597656 0.8125 4.609375 L 0.8125 4.078125 C 1.425781 4.078125 1.859375 3.96875 2.109375 3.75 C 2.367188 3.53125 2.5 3.113281 2.5 2.5 L 2.5 -10.34375 C 2.5 -11.113281 2.363281 -11.679688 2.09375 -12.046875 C 1.820312 -12.410156 1.3125 -12.59375 0.5625 -12.59375 L 0.5625 -13.125 C 1.101562 -13.070312 1.628906 -13.046875 2.140625 -13.046875 C 2.628906 -13.046875 3.097656 -13.070312 3.546875 -13.125 C 4.003906 -13.1875 4.421875 -13.28125 4.796875 -13.40625 Z M 8.875 -13.484375 C 9.769531 -13.484375 10.570312 -13.238281 11.28125 -12.75 C 12 -12.269531 12.566406 -11.5625 12.984375 -10.625 C 13.398438 -9.6875 13.609375 -8.53125 13.609375 -7.15625 C 13.609375 -6.238281 13.5 -5.332031 13.28125 -4.4375 C 13.0625 -3.550781 12.71875 -2.742188 12.25 -2.015625 C 11.78125 -1.296875 11.175781 -0.71875 10.4375 -0.28125 C 9.695312 0.144531 8.804688 0.359375 7.765625 0.359375 C 6.972656 0.359375 6.28125 0.171875 5.6875 -0.203125 C 5.101562 -0.578125 4.710938 -1.023438 4.515625 -1.546875 L 4.765625 -1.90625 C 5.003906 -1.4375 5.347656 -1.039062 5.796875 -0.71875 C 6.242188 -0.394531 6.8125 -0.234375 7.5 -0.234375 C 8.445312 -0.234375 9.179688 -0.53125 9.703125 -1.125 C 10.234375 -1.71875 10.601562 -2.507812 10.8125 -3.5 C 11.03125 -4.5 11.140625 -5.597656 11.140625 -6.796875 C 11.140625 -8.160156 11.023438 -9.273438 10.796875 -10.140625 C 10.578125 -11.003906 10.25 -11.648438 9.8125 -12.078125 C 9.375 -12.503906 8.832031 -12.71875 8.1875 -12.71875 C 7.351562 -12.71875 6.59375 -12.375 5.90625 -11.6875 C 5.226562 -11 4.796875 -9.957031 4.609375 -8.5625 L 4.3125 -8.921875 C 4.5 -10.359375 5.007812 -11.476562 5.84375 -12.28125 C 6.6875 -13.082031 7.695312 -13.484375 8.875 -13.484375 Z M 8.875 -13.484375 "/></g></g></g><g fill="#222222" fill-opacity="1"><g transform="translate(154.649778, 245.490188)"><g/></g></g><g fill="#222222" fill-opacity="1"><g transform="translate(158.597687, 245.490188)"><g><path d="M 5.296875 -13.484375 C 5.972656 -13.484375 6.550781 -13.367188 7.03125 -13.140625 C 7.507812 -12.921875 7.859375 -12.71875 8.078125 -12.53125 C 8.640625 -12.070312 8.976562 -12.378906 9.09375 -13.453125 L 9.6875 -13.453125 C 9.65625 -12.972656 9.628906 -12.40625 9.609375 -11.75 C 9.585938 -11.101562 9.578125 -10.226562 9.578125 -9.125 L 9 -9.125 C 8.894531 -9.75 8.71875 -10.359375 8.46875 -10.953125 C 8.226562 -11.546875 7.867188 -12.035156 7.390625 -12.421875 C 6.910156 -12.804688 6.289062 -13 5.53125 -13 C 4.9375 -13 4.4375 -12.832031 4.03125 -12.5 C 3.632812 -12.164062 3.4375 -11.675781 3.4375 -11.03125 C 3.4375 -10.519531 3.585938 -10.082031 3.890625 -9.71875 C 4.203125 -9.351562 4.601562 -9.015625 5.09375 -8.703125 C 5.582031 -8.390625 6.117188 -8.046875 6.703125 -7.671875 C 7.347656 -7.265625 7.929688 -6.847656 8.453125 -6.421875 C 8.984375 -5.992188 9.40625 -5.523438 9.71875 -5.015625 C 10.03125 -4.503906 10.1875 -3.90625 10.1875 -3.21875 C 10.1875 -2.425781 9.984375 -1.765625 9.578125 -1.234375 C 9.171875 -0.710938 8.640625 -0.316406 7.984375 -0.046875 C 7.335938 0.222656 6.617188 0.359375 5.828125 0.359375 C 5.460938 0.359375 5.113281 0.328125 4.78125 0.265625 C 4.445312 0.203125 4.128906 0.113281 3.828125 0 C 3.648438 -0.0820312 3.472656 -0.179688 3.296875 -0.296875 C 3.117188 -0.421875 2.945312 -0.550781 2.78125 -0.6875 C 2.601562 -0.820312 2.445312 -0.816406 2.3125 -0.671875 C 2.175781 -0.523438 2.078125 -0.242188 2.015625 0.171875 L 1.421875 0.171875 C 1.460938 -0.367188 1.488281 -1.03125 1.5 -1.8125 C 1.519531 -2.59375 1.53125 -3.628906 1.53125 -4.921875 L 2.109375 -4.921875 C 2.234375 -3.960938 2.40625 -3.125 2.625 -2.40625 C 2.84375 -1.695312 3.191406 -1.144531 3.671875 -0.75 C 4.148438 -0.351562 4.8125 -0.15625 5.65625 -0.15625 C 6 -0.15625 6.34375 -0.226562 6.6875 -0.375 C 7.039062 -0.53125 7.332031 -0.785156 7.5625 -1.140625 C 7.800781 -1.503906 7.921875 -1.984375 7.921875 -2.578125 C 7.921875 -3.316406 7.648438 -3.925781 7.109375 -4.40625 C 6.566406 -4.882812 5.878906 -5.382812 5.046875 -5.90625 C 4.429688 -6.300781 3.851562 -6.691406 3.3125 -7.078125 C 2.78125 -7.472656 2.347656 -7.914062 2.015625 -8.40625 C 1.691406 -8.90625 1.53125 -9.5 1.53125 -10.1875 C 1.53125 -10.957031 1.703125 -11.582031 2.046875 -12.0625 C 2.398438 -12.550781 2.863281 -12.910156 3.4375 -13.140625 C 4.019531 -13.367188 4.640625 -13.484375 5.296875 -13.484375 Z M 5.296875 -13.484375 "/></g></g></g><g fill="#222222" fill-opacity="1"><g transform="translate(167.589946, 245.490188)"><g><path d="M 4.84375 -17.359375 L 4.84375 -13.09375 L 8.609375 -13.09375 L 8.609375 -12.59375 L 4.84375 -12.59375 L 4.84375 -2.734375 C 4.84375 -1.929688 4.984375 -1.367188 5.265625 -1.046875 C 5.554688 -0.722656 5.957031 -0.5625 6.46875 -0.5625 C 6.976562 -0.5625 7.421875 -0.769531 7.796875 -1.1875 C 8.171875 -1.601562 8.492188 -2.300781 8.765625 -3.28125 L 9.28125 -3.15625 C 9.101562 -2.175781 8.765625 -1.34375 8.265625 -0.65625 C 7.765625 0.0195312 7 0.359375 5.96875 0.359375 C 5.382812 0.359375 4.90625 0.285156 4.53125 0.140625 C 4.15625 -0.00390625 3.828125 -0.210938 3.546875 -0.484375 C 3.171875 -0.878906 2.910156 -1.347656 2.765625 -1.890625 C 2.617188 -2.429688 2.546875 -3.148438 2.546875 -4.046875 L 2.546875 -12.59375 L 0.109375 -12.59375 L 0.109375 -13.09375 L 2.546875 -13.09375 L 2.546875 -17 C 2.972656 -17.019531 3.378906 -17.050781 3.765625 -17.09375 C 4.160156 -17.144531 4.519531 -17.234375 4.84375 -17.359375 Z M 4.84375 -17.359375 "/></g></g></g><g fill="#222222" fill-opacity="1"><g transform="translate(174.212889, 245.490188)"><g><path d="M 12.59375 -13.125 L 12.59375 -12.609375 C 12.269531 -12.578125 11.972656 -12.429688 11.703125 -12.171875 C 11.429688 -11.921875 11.175781 -11.472656 10.9375 -10.828125 L 6.75 0.125 L 6.3125 0.125 L 1.625 -11.15625 C 1.300781 -11.820312 0.984375 -12.226562 0.671875 -12.375 C 0.359375 -12.519531 0.0976562 -12.59375 -0.109375 -12.59375 L -0.109375 -13.125 C 0.265625 -13.070312 0.65625 -13.03125 1.0625 -13 C 1.476562 -12.976562 1.921875 -12.96875 2.390625 -12.96875 C 2.921875 -12.96875 3.476562 -12.984375 4.0625 -13.015625 C 4.644531 -13.054688 5.191406 -13.09375 5.703125 -13.125 L 5.703125 -12.59375 C 5.285156 -12.59375 4.910156 -12.5625 4.578125 -12.5 C 4.242188 -12.4375 4.035156 -12.253906 3.953125 -11.953125 C 3.867188 -11.660156 3.96875 -11.160156 4.25 -10.453125 L 7.390625 -2.671875 L 7.234375 -2.625 L 10.140625 -10.21875 C 10.359375 -10.78125 10.445312 -11.222656 10.40625 -11.546875 C 10.363281 -11.878906 10.1875 -12.128906 9.875 -12.296875 C 9.570312 -12.472656 9.117188 -12.578125 8.515625 -12.609375 L 8.515625 -13.125 C 8.816406 -13.101562 9.078125 -13.085938 9.296875 -13.078125 C 9.523438 -13.078125 9.742188 -13.070312 9.953125 -13.0625 C 10.160156 -13.050781 10.394531 -13.046875 10.65625 -13.046875 C 11.039062 -13.046875 11.390625 -13.050781 11.703125 -13.0625 C 12.023438 -13.082031 12.320312 -13.101562 12.59375 -13.125 Z M 6.75 0.125 L 5.890625 2.34375 C 5.710938 2.769531 5.535156 3.125 5.359375 3.40625 C 5.179688 3.695312 4.992188 3.9375 4.796875 4.125 C 4.523438 4.382812 4.203125 4.5625 3.828125 4.65625 C 3.453125 4.75 3.109375 4.796875 2.796875 4.796875 C 2.472656 4.796875 2.179688 4.734375 1.921875 4.609375 C 1.660156 4.492188 1.453125 4.320312 1.296875 4.09375 C 1.148438 3.863281 1.078125 3.585938 1.078125 3.265625 C 1.078125 2.859375 1.191406 2.53125 1.421875 2.28125 C 1.660156 2.03125 1.992188 1.90625 2.421875 1.90625 C 2.773438 1.90625 3.078125 2.003906 3.328125 2.203125 C 3.585938 2.410156 3.71875 2.710938 3.71875 3.109375 C 3.71875 3.398438 3.648438 3.640625 3.515625 3.828125 C 3.378906 4.015625 3.21875 4.15625 3.03125 4.25 C 3.0625 4.269531 3.085938 4.28125 3.109375 4.28125 C 3.140625 4.28125 3.164062 4.28125 3.1875 4.28125 C 3.644531 4.28125 4.050781 4.125 4.40625 3.8125 C 4.757812 3.5 5.078125 2.992188 5.359375 2.296875 L 6.265625 -0.078125 Z M 6.75 0.125 "/></g></g></g><g fill="#222222" fill-opacity="1"><g transform="translate(184.657312, 245.490188)"><g><path d="M 4.796875 -19.984375 L 4.796875 -2.375 C 4.796875 -1.65625 4.941406 -1.164062 5.234375 -0.90625 C 5.535156 -0.65625 6.035156 -0.53125 6.734375 -0.53125 L 6.734375 0 C 6.441406 -0.0195312 6 -0.0390625 5.40625 -0.0625 C 4.820312 -0.09375 4.234375 -0.109375 3.640625 -0.109375 C 3.066406 -0.109375 2.484375 -0.09375 1.890625 -0.0625 C 1.296875 -0.0390625 0.851562 -0.0195312 0.5625 0 L 0.5625 -0.53125 C 1.257812 -0.53125 1.753906 -0.65625 2.046875 -0.90625 C 2.347656 -1.164062 2.5 -1.65625 2.5 -2.375 L 2.5 -16.921875 C 2.5 -17.679688 2.363281 -18.242188 2.09375 -18.609375 C 1.820312 -18.984375 1.3125 -19.171875 0.5625 -19.171875 L 0.5625 -19.703125 C 1.101562 -19.648438 1.628906 -19.625 2.140625 -19.625 C 2.628906 -19.625 3.097656 -19.648438 3.546875 -19.703125 C 4.003906 -19.765625 4.421875 -19.859375 4.796875 -19.984375 Z M 4.796875 -19.984375 "/></g></g></g><g fill="#222222" fill-opacity="1"><g transform="translate(189.547847, 245.490188)"><g><path d="M 6.9375 -13.484375 C 8.425781 -13.484375 9.59375 -13.023438 10.4375 -12.109375 C 11.28125 -11.203125 11.703125 -9.789062 11.703125 -7.875 L 2.703125 -7.875 L 2.671875 -8.359375 L 9.25 -8.359375 C 9.28125 -9.191406 9.210938 -9.957031 9.046875 -10.65625 C 8.878906 -11.363281 8.613281 -11.929688 8.25 -12.359375 C 7.882812 -12.785156 7.410156 -13 6.828125 -13 C 6.046875 -13 5.351562 -12.609375 4.75 -11.828125 C 4.144531 -11.046875 3.785156 -9.804688 3.671875 -8.109375 L 3.75 -8 C 3.707031 -7.75 3.675781 -7.46875 3.65625 -7.15625 C 3.644531 -6.851562 3.640625 -6.550781 3.640625 -6.25 C 3.640625 -5.09375 3.828125 -4.097656 4.203125 -3.265625 C 4.578125 -2.429688 5.066406 -1.796875 5.671875 -1.359375 C 6.273438 -0.929688 6.898438 -0.71875 7.546875 -0.71875 C 8.054688 -0.71875 8.539062 -0.796875 9 -0.953125 C 9.457031 -1.117188 9.878906 -1.382812 10.265625 -1.75 C 10.660156 -2.125 11.003906 -2.628906 11.296875 -3.265625 L 11.796875 -3.0625 C 11.609375 -2.5 11.300781 -1.953125 10.875 -1.421875 C 10.457031 -0.898438 9.925781 -0.472656 9.28125 -0.140625 C 8.632812 0.191406 7.882812 0.359375 7.03125 0.359375 C 5.8125 0.359375 4.765625 0.078125 3.890625 -0.484375 C 3.015625 -1.046875 2.34375 -1.820312 1.875 -2.8125 C 1.40625 -3.8125 1.171875 -4.957031 1.171875 -6.25 C 1.171875 -7.738281 1.40625 -9.019531 1.875 -10.09375 C 2.351562 -11.175781 3.023438 -12.007812 3.890625 -12.59375 C 4.765625 -13.1875 5.78125 -13.484375 6.9375 -13.484375 Z M 6.9375 -13.484375 "/></g></g></g><g fill="#222222" fill-opacity="1"><g transform="translate(200.043217, 245.490188)"><g/></g></g><g fill="#222222" fill-opacity="1"><g transform="translate(203.991125, 245.490188)"><g><path d="M 5.296875 -13.484375 C 5.972656 -13.484375 6.550781 -13.367188 7.03125 -13.140625 C 7.507812 -12.921875 7.859375 -12.71875 8.078125 -12.53125 C 8.640625 -12.070312 8.976562 -12.378906 9.09375 -13.453125 L 9.6875 -13.453125 C 9.65625 -12.972656 9.628906 -12.40625 9.609375 -11.75 C 9.585938 -11.101562 9.578125 -10.226562 9.578125 -9.125 L 9 -9.125 C 8.894531 -9.75 8.71875 -10.359375 8.46875 -10.953125 C 8.226562 -11.546875 7.867188 -12.035156 7.390625 -12.421875 C 6.910156 -12.804688 6.289062 -13 5.53125 -13 C 4.9375 -13 4.4375 -12.832031 4.03125 -12.5 C 3.632812 -12.164062 3.4375 -11.675781 3.4375 -11.03125 C 3.4375 -10.519531 3.585938 -10.082031 3.890625 -9.71875 C 4.203125 -9.351562 4.601562 -9.015625 5.09375 -8.703125 C 5.582031 -8.390625 6.117188 -8.046875 6.703125 -7.671875 C 7.347656 -7.265625 7.929688 -6.847656 8.453125 -6.421875 C 8.984375 -5.992188 9.40625 -5.523438 9.71875 -5.015625 C 10.03125 -4.503906 10.1875 -3.90625 10.1875 -3.21875 C 10.1875 -2.425781 9.984375 -1.765625 9.578125 -1.234375 C 9.171875 -0.710938 8.640625 -0.316406 7.984375 -0.046875 C 7.335938 0.222656 6.617188 0.359375 5.828125 0.359375 C 5.460938 0.359375 5.113281 0.328125 4.78125 0.265625 C 4.445312 0.203125 4.128906 0.113281 3.828125 0 C 3.648438 -0.0820312 3.472656 -0.179688 3.296875 -0.296875 C 3.117188 -0.421875 2.945312 -0.550781 2.78125 -0.6875 C 2.601562 -0.820312 2.445312 -0.816406 2.3125 -0.671875 C 2.175781 -0.523438 2.078125 -0.242188 2.015625 0.171875 L 1.421875 0.171875 C 1.460938 -0.367188 1.488281 -1.03125 1.5 -1.8125 C 1.519531 -2.59375 1.53125 -3.628906 1.53125 -4.921875 L 2.109375 -4.921875 C 2.234375 -3.960938 2.40625 -3.125 2.625 -2.40625 C 2.84375 -1.695312 3.191406 -1.144531 3.671875 -0.75 C 4.148438 -0.351562 4.8125 -0.15625 5.65625 -0.15625 C 6 -0.15625 6.34375 -0.226562 6.6875 -0.375 C 7.039062 -0.53125 7.332031 -0.785156 7.5625 -1.140625 C 7.800781 -1.503906 7.921875 -1.984375 7.921875 -2.578125 C 7.921875 -3.316406 7.648438 -3.925781 7.109375 -4.40625 C 6.566406 -4.882812 5.878906 -5.382812 5.046875 -5.90625 C 4.429688 -6.300781 3.851562 -6.691406 3.3125 -7.078125 C 2.78125 -7.472656 2.347656 -7.914062 2.015625 -8.40625 C 1.691406 -8.90625 1.53125 -9.5 1.53125 -10.1875 C 1.53125 -10.957031 1.703125 -11.582031 2.046875 -12.0625 C 2.398438 -12.550781 2.863281 -12.910156 3.4375 -13.140625 C 4.019531 -13.367188 4.640625 -13.484375 5.296875 -13.484375 Z M 5.296875 -13.484375 "/></g></g></g><g fill="#222222" fill-opacity="1"><g transform="translate(212.983383, 245.490188)"><g><path d="M 12.3125 -13.40625 L 12.3125 -2.75 C 12.3125 -1.988281 12.453125 -1.425781 12.734375 -1.0625 C 13.015625 -0.695312 13.519531 -0.515625 14.25 -0.515625 L 14.25 0.03125 C 13.71875 -0.0195312 13.191406 -0.046875 12.671875 -0.046875 C 12.171875 -0.046875 11.695312 -0.0195312 11.25 0.03125 C 10.800781 0.0820312 10.390625 0.175781 10.015625 0.3125 L 10.015625 -2.703125 C 9.585938 -1.597656 8.988281 -0.8125 8.21875 -0.34375 C 7.445312 0.125 6.648438 0.359375 5.828125 0.359375 C 5.234375 0.359375 4.71875 0.269531 4.28125 0.09375 C 3.84375 -0.0703125 3.476562 -0.304688 3.1875 -0.609375 C 2.863281 -0.953125 2.640625 -1.394531 2.515625 -1.9375 C 2.398438 -2.476562 2.34375 -3.148438 2.34375 -3.953125 L 2.34375 -10.34375 C 2.34375 -11.113281 2.207031 -11.679688 1.9375 -12.046875 C 1.664062 -12.410156 1.15625 -12.59375 0.40625 -12.59375 L 0.40625 -13.125 C 0.945312 -13.070312 1.472656 -13.046875 1.984375 -13.046875 C 2.484375 -13.046875 2.957031 -13.070312 3.40625 -13.125 C 3.851562 -13.1875 4.265625 -13.28125 4.640625 -13.40625 L 4.640625 -3.390625 C 4.640625 -2.859375 4.671875 -2.375 4.734375 -1.9375 C 4.804688 -1.5 4.976562 -1.140625 5.25 -0.859375 C 5.519531 -0.585938 5.960938 -0.453125 6.578125 -0.453125 C 7.234375 -0.453125 7.820312 -0.65625 8.34375 -1.0625 C 8.863281 -1.476562 9.269531 -2.03125 9.5625 -2.71875 C 9.863281 -3.414062 10.015625 -4.203125 10.015625 -5.078125 L 10.015625 -10.34375 C 10.015625 -11.113281 9.878906 -11.679688 9.609375 -12.046875 C 9.335938 -12.410156 8.828125 -12.59375 8.078125 -12.59375 L 8.078125 -13.125 C 8.617188 -13.070312 9.144531 -13.046875 9.65625 -13.046875 C 10.144531 -13.046875 10.613281 -13.070312 11.0625 -13.125 C 11.519531 -13.1875 11.9375 -13.28125 12.3125 -13.40625 Z M 12.3125 -13.40625 "/></g></g></g><g fill="#222222" fill-opacity="1"><g transform="translate(225.389493, 245.490188)"><g><path d="M 5.296875 -13.484375 C 5.972656 -13.484375 6.550781 -13.367188 7.03125 -13.140625 C 7.507812 -12.921875 7.859375 -12.71875 8.078125 -12.53125 C 8.640625 -12.070312 8.976562 -12.378906 9.09375 -13.453125 L 9.6875 -13.453125 C 9.65625 -12.972656 9.628906 -12.40625 9.609375 -11.75 C 9.585938 -11.101562 9.578125 -10.226562 9.578125 -9.125 L 9 -9.125 C 8.894531 -9.75 8.71875 -10.359375 8.46875 -10.953125 C 8.226562 -11.546875 7.867188 -12.035156 7.390625 -12.421875 C 6.910156 -12.804688 6.289062 -13 5.53125 -13 C 4.9375 -13 4.4375 -12.832031 4.03125 -12.5 C 3.632812 -12.164062 3.4375 -11.675781 3.4375 -11.03125 C 3.4375 -10.519531 3.585938 -10.082031 3.890625 -9.71875 C 4.203125 -9.351562 4.601562 -9.015625 5.09375 -8.703125 C 5.582031 -8.390625 6.117188 -8.046875 6.703125 -7.671875 C 7.347656 -7.265625 7.929688 -6.847656 8.453125 -6.421875 C 8.984375 -5.992188 9.40625 -5.523438 9.71875 -5.015625 C 10.03125 -4.503906 10.1875 -3.90625 10.1875 -3.21875 C 10.1875 -2.425781 9.984375 -1.765625 9.578125 -1.234375 C 9.171875 -0.710938 8.640625 -0.316406 7.984375 -0.046875 C 7.335938 0.222656 6.617188 0.359375 5.828125 0.359375 C 5.460938 0.359375 5.113281 0.328125 4.78125 0.265625 C 4.445312 0.203125 4.128906 0.113281 3.828125 0 C 3.648438 -0.0820312 3.472656 -0.179688 3.296875 -0.296875 C 3.117188 -0.421875 2.945312 -0.550781 2.78125 -0.6875 C 2.601562 -0.820312 2.445312 -0.816406 2.3125 -0.671875 C 2.175781 -0.523438 2.078125 -0.242188 2.015625 0.171875 L 1.421875 0.171875 C 1.460938 -0.367188 1.488281 -1.03125 1.5 -1.8125 C 1.519531 -2.59375 1.53125 -3.628906 1.53125 -4.921875 L 2.109375 -4.921875 C 2.234375 -3.960938 2.40625 -3.125 2.625 -2.40625 C 2.84375 -1.695312 3.191406 -1.144531 3.671875 -0.75 C 4.148438 -0.351562 4.8125 -0.15625 5.65625 -0.15625 C 6 -0.15625 6.34375 -0.226562 6.6875 -0.375 C 7.039062 -0.53125 7.332031 -0.785156 7.5625 -1.140625 C 7.800781 -1.503906 7.921875 -1.984375 7.921875 -2.578125 C 7.921875 -3.316406 7.648438 -3.925781 7.109375 -4.40625 C 6.566406 -4.882812 5.878906 -5.382812 5.046875 -5.90625 C 4.429688 -6.300781 3.851562 -6.691406 3.3125 -7.078125 C 2.78125 -7.472656 2.347656 -7.914062 2.015625 -8.40625 C 1.691406 -8.90625 1.53125 -9.5 1.53125 -10.1875 C 1.53125 -10.957031 1.703125 -11.582031 2.046875 -12.0625 C 2.398438 -12.550781 2.863281 -12.910156 3.4375 -13.140625 C 4.019531 -13.367188 4.640625 -13.484375 5.296875 -13.484375 Z M 5.296875 -13.484375 "/></g></g></g><g fill="#222222" fill-opacity="1"><g transform="translate(234.38175, 245.490188)"><g><path d="M 4.84375 -17.359375 L 4.84375 -13.09375 L 8.609375 -13.09375 L 8.609375 -12.59375 L 4.84375 -12.59375 L 4.84375 -2.734375 C 4.84375 -1.929688 4.984375 -1.367188 5.265625 -1.046875 C 5.554688 -0.722656 5.957031 -0.5625 6.46875 -0.5625 C 6.976562 -0.5625 7.421875 -0.769531 7.796875 -1.1875 C 8.171875 -1.601562 8.492188 -2.300781 8.765625 -3.28125 L 9.28125 -3.15625 C 9.101562 -2.175781 8.765625 -1.34375 8.265625 -0.65625 C 7.765625 0.0195312 7 0.359375 5.96875 0.359375 C 5.382812 0.359375 4.90625 0.285156 4.53125 0.140625 C 4.15625 -0.00390625 3.828125 -0.210938 3.546875 -0.484375 C 3.171875 -0.878906 2.910156 -1.347656 2.765625 -1.890625 C 2.617188 -2.429688 2.546875 -3.148438 2.546875 -4.046875 L 2.546875 -12.59375 L 0.109375 -12.59375 L 0.109375 -13.09375 L 2.546875 -13.09375 L 2.546875 -17 C 2.972656 -17.019531 3.378906 -17.050781 3.765625 -17.09375 C 4.160156 -17.144531 4.519531 -17.234375 4.84375 -17.359375 Z M 4.84375 -17.359375 "/></g></g></g><g fill="#222222" fill-opacity="1"><g transform="translate(241.004692, 245.490188)"><g><path d="M 4.359375 0.171875 C 3.660156 0.171875 3.054688 0.0390625 2.546875 -0.21875 C 2.035156 -0.476562 1.648438 -0.84375 1.390625 -1.3125 C 1.128906 -1.789062 1 -2.347656 1 -2.984375 C 1 -3.734375 1.171875 -4.34375 1.515625 -4.8125 C 1.859375 -5.289062 2.300781 -5.671875 2.84375 -5.953125 C 3.394531 -6.242188 3.972656 -6.488281 4.578125 -6.6875 C 5.179688 -6.882812 5.753906 -7.070312 6.296875 -7.25 C 6.835938 -7.425781 7.28125 -7.632812 7.625 -7.875 C 7.976562 -8.113281 8.15625 -8.425781 8.15625 -8.8125 L 8.15625 -10.390625 C 8.15625 -11.109375 8.046875 -11.65625 7.828125 -12.03125 C 7.617188 -12.40625 7.335938 -12.65625 6.984375 -12.78125 C 6.628906 -12.90625 6.226562 -12.96875 5.78125 -12.96875 C 5.351562 -12.96875 4.894531 -12.90625 4.40625 -12.78125 C 3.925781 -12.664062 3.546875 -12.421875 3.265625 -12.046875 C 3.585938 -11.984375 3.863281 -11.816406 4.09375 -11.546875 C 4.332031 -11.273438 4.453125 -10.925781 4.453125 -10.5 C 4.453125 -10.070312 4.316406 -9.734375 4.046875 -9.484375 C 3.773438 -9.242188 3.425781 -9.125 3 -9.125 C 2.507812 -9.125 2.148438 -9.28125 1.921875 -9.59375 C 1.691406 -9.90625 1.578125 -10.257812 1.578125 -10.65625 C 1.578125 -11.09375 1.6875 -11.445312 1.90625 -11.71875 C 2.132812 -11.988281 2.414062 -12.242188 2.75 -12.484375 C 3.144531 -12.753906 3.648438 -12.988281 4.265625 -13.1875 C 4.890625 -13.382812 5.59375 -13.484375 6.375 -13.484375 C 7.070312 -13.484375 7.664062 -13.398438 8.15625 -13.234375 C 8.644531 -13.078125 9.050781 -12.84375 9.375 -12.53125 C 9.820312 -12.125 10.113281 -11.628906 10.25 -11.046875 C 10.382812 -10.460938 10.453125 -9.757812 10.453125 -8.9375 L 10.453125 -1.859375 C 10.453125 -1.429688 10.515625 -1.125 10.640625 -0.9375 C 10.765625 -0.75 10.960938 -0.65625 11.234375 -0.65625 C 11.421875 -0.65625 11.597656 -0.695312 11.765625 -0.78125 C 11.941406 -0.875 12.148438 -1.015625 12.390625 -1.203125 L 12.671875 -0.765625 C 12.304688 -0.492188 11.960938 -0.269531 11.640625 -0.09375 C 11.316406 0.0820312 10.882812 0.171875 10.34375 0.171875 C 9.851562 0.171875 9.445312 0.0859375 9.125 -0.078125 C 8.800781 -0.242188 8.554688 -0.492188 8.390625 -0.828125 C 8.234375 -1.160156 8.15625 -1.582031 8.15625 -2.09375 C 7.695312 -1.320312 7.148438 -0.75 6.515625 -0.375 C 5.878906 -0.0078125 5.160156 0.171875 4.359375 0.171875 Z M 5.28125 -0.84375 C 5.832031 -0.84375 6.347656 -1.003906 6.828125 -1.328125 C 7.316406 -1.648438 7.757812 -2.132812 8.15625 -2.78125 L 8.15625 -7.765625 C 7.945312 -7.484375 7.644531 -7.242188 7.25 -7.046875 C 6.863281 -6.847656 6.441406 -6.648438 5.984375 -6.453125 C 5.523438 -6.265625 5.085938 -6.035156 4.671875 -5.765625 C 4.253906 -5.503906 3.910156 -5.160156 3.640625 -4.734375 C 3.367188 -4.316406 3.234375 -3.765625 3.234375 -3.078125 C 3.234375 -2.398438 3.414062 -1.859375 3.78125 -1.453125 C 4.144531 -1.046875 4.644531 -0.84375 5.28125 -0.84375 Z M 5.28125 -0.84375 "/></g></g></g><g fill="#222222" fill-opacity="1"><g transform="translate(251.29626, 245.490188)"><g><path d="M 3.640625 -19.5 C 4.085938 -19.5 4.472656 -19.335938 4.796875 -19.015625 C 5.117188 -18.691406 5.28125 -18.304688 5.28125 -17.859375 C 5.28125 -17.421875 5.117188 -17.039062 4.796875 -16.71875 C 4.472656 -16.394531 4.085938 -16.234375 3.640625 -16.234375 C 3.203125 -16.234375 2.820312 -16.394531 2.5 -16.71875 C 2.175781 -17.039062 2.015625 -17.421875 2.015625 -17.859375 C 2.015625 -18.304688 2.175781 -18.691406 2.5 -19.015625 C 2.820312 -19.335938 3.203125 -19.5 3.640625 -19.5 Z M 4.96875 -13.40625 L 4.96875 -2.375 C 4.96875 -1.65625 5.113281 -1.164062 5.40625 -0.90625 C 5.707031 -0.65625 6.207031 -0.53125 6.90625 -0.53125 L 6.90625 0 C 6.613281 -0.0195312 6.175781 -0.0390625 5.59375 -0.0625 C 5.007812 -0.09375 4.421875 -0.109375 3.828125 -0.109375 C 3.242188 -0.109375 2.65625 -0.09375 2.0625 -0.0625 C 1.46875 -0.0390625 1.023438 -0.0195312 0.734375 0 L 0.734375 -0.53125 C 1.429688 -0.53125 1.925781 -0.65625 2.21875 -0.90625 C 2.519531 -1.164062 2.671875 -1.65625 2.671875 -2.375 L 2.671875 -10.34375 C 2.671875 -11.113281 2.535156 -11.679688 2.265625 -12.046875 C 1.992188 -12.410156 1.484375 -12.59375 0.734375 -12.59375 L 0.734375 -13.125 C 1.273438 -13.070312 1.800781 -13.046875 2.3125 -13.046875 C 2.8125 -13.046875 3.285156 -13.070312 3.734375 -13.125 C 4.179688 -13.1875 4.59375 -13.28125 4.96875 -13.40625 Z M 4.96875 -13.40625 "/></g></g></g><g fill="#222222" fill-opacity="1"><g transform="translate(256.365134, 245.490188)"><g><path d="M 9.296875 -13.484375 C 9.941406 -13.484375 10.476562 -13.394531 10.90625 -13.21875 C 11.34375 -13.050781 11.707031 -12.816406 12 -12.515625 C 12.320312 -12.171875 12.550781 -11.742188 12.6875 -11.234375 C 12.820312 -10.722656 12.890625 -10.035156 12.890625 -9.171875 L 12.890625 -2.375 C 12.890625 -1.65625 13.035156 -1.164062 13.328125 -0.90625 C 13.628906 -0.65625 14.128906 -0.53125 14.828125 -0.53125 L 14.828125 0 C 14.546875 -0.0195312 14.101562 -0.0390625 13.5 -0.0625 C 12.90625 -0.09375 12.332031 -0.109375 11.78125 -0.109375 C 11.21875 -0.109375 10.664062 -0.09375 10.125 -0.0625 C 9.59375 -0.0390625 9.191406 -0.0195312 8.921875 0 L 8.921875 -0.53125 C 9.535156 -0.53125 9.96875 -0.65625 10.21875 -0.90625 C 10.46875 -1.164062 10.59375 -1.65625 10.59375 -2.375 L 10.59375 -9.734375 C 10.59375 -10.265625 10.550781 -10.75 10.46875 -11.1875 C 10.382812 -11.625 10.191406 -11.976562 9.890625 -12.25 C 9.597656 -12.53125 9.144531 -12.671875 8.53125 -12.671875 C 7.820312 -12.671875 7.195312 -12.460938 6.65625 -12.046875 C 6.125 -11.640625 5.707031 -11.082031 5.40625 -10.375 C 5.113281 -9.675781 4.96875 -8.894531 4.96875 -8.03125 L 4.96875 -2.375 C 4.96875 -1.65625 5.09375 -1.164062 5.34375 -0.90625 C 5.601562 -0.65625 6.039062 -0.53125 6.65625 -0.53125 L 6.65625 0 C 6.382812 -0.0195312 5.976562 -0.0390625 5.4375 -0.0625 C 4.90625 -0.09375 4.359375 -0.109375 3.796875 -0.109375 C 3.234375 -0.109375 2.65625 -0.09375 2.0625 -0.0625 C 1.46875 -0.0390625 1.023438 -0.0195312 0.734375 0 L 0.734375 -0.53125 C 1.429688 -0.53125 1.925781 -0.65625 2.21875 -0.90625 C 2.519531 -1.164062 2.671875 -1.65625 2.671875 -2.375 L 2.671875 -10.34375 C 2.671875 -11.113281 2.535156 -11.679688 2.265625 -12.046875 C 1.992188 -12.410156 1.484375 -12.59375 0.734375 -12.59375 L 0.734375 -13.125 C 1.273438 -13.070312 1.800781 -13.046875 2.3125 -13.046875 C 2.8125 -13.046875 3.285156 -13.070312 3.734375 -13.125 C 4.179688 -13.1875 4.59375 -13.28125 4.96875 -13.40625 L 4.96875 -10.390625 C 5.40625 -11.546875 6.019531 -12.347656 6.8125 -12.796875 C 7.601562 -13.253906 8.429688 -13.484375 9.296875 -13.484375 Z M 9.296875 -13.484375 "/></g></g></g><g fill="#222222" fill-opacity="1"><g transform="translate(269.188837, 245.490188)"><g/></g></g></svg>