<svg xmlns="http://www.w3.org/2000/svg" xmlns:xlink="http://www.w3.org/1999/xlink" width="500" zoomAndPan="magnify" viewBox="0 0 375 374.999991" height="500" preserveAspectRatio="xMidYMid meet" version="1.0"><defs><g/><clipPath id="6fb9c076ff"><path d="M 67.191406 168 L 146 168 L 146 276 L 67.191406 276 Z M 67.191406 168 " clip-rule="nonzero"/></clipPath></defs><rect x="-37.5" width="450" fill="#ffffff" y="-37.499999" height="449.999989" fill-opacity="1"/><rect x="-37.5" width="450" fill="#efeee7" y="-37.499999" height="449.999989" fill-opacity="1"/><path fill="#3e721d" d="M 273.710938 254.738281 C 271.304688 254.738281 268.980469 253.488281 267.707031 251.257812 L 238.457031 203.074219 C 236.566406 199.765625 237.304688 195.621094 240.613281 193.722656 L 274.855469 173.003906 C 275.933594 172.386719 278.28125 171.855469 279.441406 171.855469 C 281.847656 171.855469 284.082031 173.222656 285.355469 175.453125 L 306.8125 210.832031 L 307.945312 226.246094 C 309.839844 229.554688 301.328125 234.425781 298.015625 236.316406 L 277.121094 253.824219 C 276.050781 254.449219 274.871094 254.738281 273.710938 254.738281 Z M 273.710938 254.738281 " fill-opacity="1" fill-rule="nonzero"/><path fill="#77b255" d="M 225.355469 275.457031 C 221.535156 275.457031 218.449219 272.371094 218.449219 268.550781 L 218.449219 227.109375 C 218.449219 223.289062 221.535156 220.203125 225.355469 220.203125 L 294.421875 220.203125 C 307.199219 220.203125 305.128906 207.902344 305.128906 207.902344 C 305.128906 207.902344 307.386719 211.785156 307.71875 212.398438 C 309.976562 216.640625 311.476562 223.117188 307.953125 229.699219 L 286.617188 271.984375 C 285.617188 273.980469 283.226562 275.457031 280.609375 275.457031 Z M 225.355469 275.457031 " fill-opacity="1" fill-rule="nonzero"/><path fill="#77b255" d="M 218.449219 296.179688 C 216.652344 296.179688 214.886719 295.472656 213.566406 294.15625 L 172.125 252.714844 C 169.425781 250.011719 169.425781 245.648438 172.125 242.949219 L 213.566406 201.507812 C 214.886719 200.1875 216.652344 199.484375 218.449219 199.484375 C 219.339844 199.484375 220.238281 199.648438 221.09375 200.007812 C 223.675781 201.070312 225.355469 203.601562 225.355469 206.390625 L 225.355469 289.269531 C 225.355469 292.0625 223.675781 294.589844 221.09375 295.652344 C 220.238281 296.011719 219.339844 296.179688 218.449219 296.179688 Z M 218.449219 296.179688 " fill-opacity="1" fill-rule="nonzero"/><path fill="#3e721d" d="M 208.730469 77.226562 C 209.820312 79.367188 209.765625 82.007812 208.359375 84.160156 L 178.707031 132.09375 C 176.613281 135.292969 172.585938 136.507812 169.398438 134.414062 L 135.386719 113.320312 C 134.351562 112.636719 132.804688 110.785156 132.28125 109.757812 C 131.1875 107.617188 131.390625 105.003906 132.796875 102.851562 L 154.566406 67.667969 L 167.789062 59.664062 C 169.878906 56.464844 178.078125 61.839844 181.277344 63.9375 L 206.355469 74.601562 C 207.40625 75.285156 208.207031 76.203125 208.730469 77.226562 Z M 208.730469 77.226562 " fill-opacity="1" fill-rule="nonzero"/><path fill="#77b255" d="M 249.140625 110.902344 C 250.875 114.308594 249.535156 118.460938 246.125 120.199219 L 209.195312 139.015625 C 205.796875 140.742188 201.636719 139.394531 199.910156 135.996094 L 168.539062 74.457031 C 162.746094 63.066406 152.722656 70.5 152.722656 70.5 C 152.722656 70.5 155.15625 66.726562 155.554688 66.148438 C 158.3125 62.210938 163.394531 57.941406 170.859375 58.085938 L 218.234375 57.894531 C 220.472656 57.894531 222.867188 59.335938 224.0625 61.671875 Z M 249.140625 110.902344 " fill-opacity="1" fill-rule="nonzero"/><path fill="#77b255" d="M 270.738281 107.65625 C 271.554688 109.253906 271.726562 111.144531 271.15625 112.921875 L 253.050781 168.664062 C 251.878906 172.292969 247.980469 174.273438 244.347656 173.097656 L 188.613281 154.984375 C 186.828125 154.410156 185.40625 153.152344 184.585938 151.558594 C 184.175781 150.769531 183.921875 149.886719 183.847656 148.960938 C 183.625 146.167969 185.117188 143.53125 187.601562 142.265625 L 261.449219 104.640625 C 263.9375 103.367188 266.941406 103.714844 269.070312 105.539062 C 269.78125 106.132812 270.339844 106.863281 270.738281 107.65625 Z M 270.738281 107.65625 " fill-opacity="1" fill-rule="nonzero"/><path fill="#3e721d" d="M 89.808594 223.945312 C 91.058594 221.894531 93.332031 220.5625 95.902344 220.640625 L 152.269531 220.671875 C 156.085938 220.789062 159.238281 223.574219 159.140625 227.386719 L 159.042969 267.410156 C 159.007812 268.65625 158.242188 270.949219 157.640625 271.929688 C 156.390625 273.980469 154.058594 275.1875 151.488281 275.113281 L 110.117188 275.058594 L 96.351562 268.019531 C 92.546875 267.902344 92.808594 258.109375 92.902344 254.300781 L 88.808594 227.339844 C 88.835938 226.101562 89.210938 224.933594 89.808594 223.945312 Z M 89.808594 223.945312 " fill-opacity="1" fill-rule="nonzero"/><g clip-path="url(#6fb9c076ff)"><path fill="#77b255" d="M 97.242188 171.871094 C 99.222656 168.609375 103.472656 167.574219 106.730469 169.554688 L 142.136719 191.097656 C 145.402344 193.082031 146.433594 197.320312 144.449219 200.589844 L 108.554688 259.59375 C 101.925781 270.503906 113.507812 275.132812 113.507812 275.132812 C 113.507812 275.132812 109.019531 275.035156 108.320312 274.996094 C 103.511719 274.734375 97.207031 272.640625 93.410156 266.214844 L 68.363281 226.019531 C 67.183594 224.121094 67.164062 221.308594 68.523438 219.070312 Z M 97.242188 171.871094 " fill-opacity="1" fill-rule="nonzero"/></g><path fill="#77b255" d="M 83.125 155.203125 C 84.0625 153.65625 85.574219 152.523438 87.390625 152.066406 L 144.339844 138.214844 C 148.046875 137.300781 151.777344 139.574219 152.683594 143.28125 L 166.542969 200.222656 C 166.984375 202.046875 166.660156 203.910156 165.730469 205.449219 C 165.273438 206.203125 164.660156 206.886719 163.90625 207.441406 C 161.652344 209.082031 158.628906 209.207031 156.238281 207.757812 L 85.445312 164.695312 C 83.054688 163.238281 81.777344 160.488281 82.207031 157.730469 C 82.34375 156.804688 82.660156 155.964844 83.125 155.203125 Z M 83.125 155.203125 " fill-opacity="1" fill-rule="nonzero"/><g fill="#efeee7" fill-opacity="1"><g transform="translate(105.056404, 234.628152)"><g><path d="M -11.921875 -16.234375 C -11.421875 -17.078125 -10.875 -17.742188 -10.28125 -18.234375 C -9.695312 -18.734375 -9.21875 -19.0625 -8.84375 -19.21875 C -7.96875 -19.632812 -8.015625 -20.242188 -8.984375 -21.046875 L -8.609375 -21.6875 C -8.066406 -21.289062 -7.394531 -20.84375 -6.59375 -20.34375 C -5.800781 -19.84375 -4.738281 -19.191406 -3.40625 -18.390625 L -3.796875 -17.765625 C -4.585938 -18.085938 -5.425781 -18.328125 -6.3125 -18.484375 C -7.207031 -18.640625 -8.039062 -18.585938 -8.8125 -18.328125 C -9.59375 -18.078125 -10.234375 -17.535156 -10.734375 -16.703125 C -11.085938 -16.117188 -11.21875 -15.523438 -11.125 -14.921875 C -11.039062 -14.328125 -10.6875 -13.84375 -10.0625 -13.46875 C -9.457031 -13.113281 -8.820312 -12.976562 -8.15625 -13.0625 C -7.5 -13.15625 -6.796875 -13.363281 -6.046875 -13.6875 C -5.296875 -14.019531 -4.5 -14.351562 -3.65625 -14.6875 C -2.757812 -15.050781 -1.90625 -15.351562 -1.09375 -15.59375 C -0.28125 -15.832031 0.507812 -15.941406 1.28125 -15.921875 C 2.050781 -15.898438 2.835938 -15.648438 3.640625 -15.171875 C 4.535156 -14.628906 5.160156 -13.894531 5.515625 -12.96875 C 5.878906 -12.039062 5.984375 -11.046875 5.828125 -9.984375 C 5.679688 -8.921875 5.296875 -7.867188 4.671875 -6.828125 C 4.304688 -6.222656 3.921875 -5.722656 3.515625 -5.328125 C 3.109375 -4.929688 2.71875 -4.617188 2.34375 -4.390625 C 2.070312 -4.203125 1.8125 -4.023438 1.5625 -3.859375 C 1.3125 -3.691406 1.085938 -3.53125 0.890625 -3.375 C 0.710938 -3.21875 0.675781 -3.003906 0.78125 -2.734375 C 0.894531 -2.460938 1.109375 -2.179688 1.421875 -1.890625 L 1.046875 -1.25 C 0.421875 -1.675781 -0.34375 -2.175781 -1.25 -2.75 C -2.15625 -3.320312 -3.363281 -4.066406 -4.875 -4.984375 L -4.5 -5.609375 C -3.351562 -5.066406 -2.265625 -4.707031 -1.234375 -4.53125 C -0.210938 -4.351562 0.691406 -4.398438 1.484375 -4.671875 C 2.285156 -4.941406 2.9375 -5.492188 3.4375 -6.328125 C 3.644531 -6.671875 3.773438 -7.039062 3.828125 -7.4375 C 3.878906 -7.84375 3.804688 -8.25 3.609375 -8.65625 C 3.421875 -9.0625 3.078125 -9.414062 2.578125 -9.71875 C 1.691406 -10.25 0.789062 -10.398438 -0.125 -10.171875 C -1.050781 -9.953125 -2.117188 -9.609375 -3.328125 -9.140625 C -4.234375 -8.804688 -5.109375 -8.507812 -5.953125 -8.25 C -6.804688 -7.988281 -7.644531 -7.863281 -8.46875 -7.875 C -9.300781 -7.882812 -10.101562 -8.117188 -10.875 -8.578125 C -11.78125 -9.117188 -12.394531 -9.8125 -12.71875 -10.65625 C -13.050781 -11.507812 -13.132812 -12.425781 -12.96875 -13.40625 C -12.8125 -14.382812 -12.460938 -15.328125 -11.921875 -16.234375 Z M -11.921875 -16.234375 "/></g></g></g><g fill="#efeee7" fill-opacity="1"><g transform="translate(111.685308, 223.599925)"><g><path d="M -10.734375 -17.265625 L -10.109375 -16.875 C -10.367188 -16.4375 -10.570312 -16.035156 -10.71875 -15.671875 C -10.863281 -15.316406 -10.847656 -15.015625 -10.671875 -14.765625 C -10.492188 -14.515625 -10.082031 -14.3125 -9.4375 -14.15625 L 1.171875 -11.65625 L 1.34375 -11.015625 L -8.203125 -21.546875 L -7.578125 -21.96875 L 4.984375 -8.171875 C 4.785156 -7.867188 4.585938 -7.554688 4.390625 -7.234375 C 4.203125 -6.921875 4.007812 -6.585938 3.8125 -6.234375 L -12.265625 -9.453125 C -13.234375 -9.660156 -13.894531 -9.644531 -14.25 -9.40625 C -14.613281 -9.175781 -14.863281 -8.945312 -15 -8.71875 L -15.625 -9.109375 C -15.175781 -9.710938 -14.726562 -10.347656 -14.28125 -11.015625 C -13.84375 -11.679688 -13.375 -12.425781 -12.875 -13.25 C -12.5 -13.875 -12.125 -14.539062 -11.75 -15.25 C -11.382812 -15.96875 -11.046875 -16.640625 -10.734375 -17.265625 Z M -1.3125 -32.921875 L -0.71875 -32.546875 C -0.84375 -32.117188 -0.828125 -31.625 -0.671875 -31.0625 C -0.523438 -30.5 -0.09375 -29.800781 0.625 -28.96875 L 10.609375 -17.53125 C 10.398438 -17.226562 10.195312 -16.910156 10 -16.578125 C 9.800781 -16.242188 9.613281 -15.914062 9.4375 -15.59375 L -4.640625 -18.296875 L -8.203125 -21.546875 C -7.960938 -21.898438 -7.734375 -22.257812 -7.515625 -22.625 C -7.304688 -23 -7.09375 -23.367188 -6.875 -23.734375 L 7.6875 -20.546875 L 7.171875 -20.421875 L 2.015625 -26.265625 C 1.117188 -27.253906 0.3125 -27.914062 -0.40625 -28.25 C -1.132812 -28.582031 -1.789062 -28.648438 -2.375 -28.453125 C -2.957031 -28.253906 -3.484375 -27.828125 -3.953125 -27.171875 L -4.546875 -27.546875 C -4.328125 -27.847656 -4.101562 -28.179688 -3.875 -28.546875 C -3.644531 -28.910156 -3.410156 -29.273438 -3.171875 -29.640625 C -2.941406 -30.015625 -2.75 -30.328125 -2.59375 -30.578125 C -2.351562 -30.984375 -2.113281 -31.40625 -1.875 -31.84375 C -1.632812 -32.28125 -1.445312 -32.640625 -1.3125 -32.921875 Z M -1.3125 -32.921875 "/></g></g></g><g fill="#efeee7" fill-opacity="1"><g transform="translate(124.169219, 202.830971)"><g><path d="M 3.140625 -4.734375 C 2.597656 -3.835938 1.976562 -3.191406 1.28125 -2.796875 C 0.582031 -2.398438 -0.132812 -2.234375 -0.875 -2.296875 C -1.625 -2.359375 -2.335938 -2.59375 -3.015625 -3 C -3.878906 -3.507812 -4.460938 -4.117188 -4.765625 -4.828125 C -5.066406 -5.546875 -5.203125 -6.316406 -5.171875 -7.140625 C -5.140625 -7.960938 -5.023438 -8.785156 -4.828125 -9.609375 C -4.628906 -10.441406 -4.445312 -11.234375 -4.28125 -11.984375 C -4.125 -12.742188 -4.070312 -13.40625 -4.125 -13.96875 C -4.175781 -14.53125 -4.429688 -14.953125 -4.890625 -15.234375 L -7.234375 -16.640625 C -7.753906 -16.953125 -8.265625 -17.144531 -8.765625 -17.21875 C -9.273438 -17.289062 -9.742188 -17.21875 -10.171875 -17 C -10.609375 -16.78125 -10.992188 -16.390625 -11.328125 -15.828125 C -11.566406 -15.429688 -11.753906 -15 -11.890625 -14.53125 C -12.023438 -14.0625 -12.035156 -13.625 -11.921875 -13.21875 C -11.390625 -13.65625 -10.828125 -13.90625 -10.234375 -13.96875 C -9.640625 -14.03125 -9.082031 -13.90625 -8.5625 -13.59375 C -7.882812 -13.1875 -7.488281 -12.625 -7.375 -11.90625 C -7.257812 -11.195312 -7.390625 -10.523438 -7.765625 -9.890625 C -8.203125 -9.171875 -8.753906 -8.757812 -9.421875 -8.65625 C -10.097656 -8.550781 -10.757812 -8.695312 -11.40625 -9.09375 C -11.988281 -9.4375 -12.378906 -9.867188 -12.578125 -10.390625 C -12.773438 -10.910156 -12.890625 -11.53125 -12.921875 -12.25 C -12.910156 -13.007812 -12.753906 -13.835938 -12.453125 -14.734375 C -12.160156 -15.640625 -11.738281 -16.550781 -11.1875 -17.46875 C -10.632812 -18.382812 -10.035156 -19.148438 -9.390625 -19.765625 C -8.753906 -20.390625 -8.035156 -20.804688 -7.234375 -21.015625 C -6.503906 -21.191406 -5.765625 -21.148438 -5.015625 -20.890625 C -4.265625 -20.628906 -3.378906 -20.191406 -2.359375 -19.578125 L 5.796875 -14.6875 C 6.296875 -14.382812 6.671875 -14.222656 6.921875 -14.203125 C 7.179688 -14.191406 7.382812 -14.304688 7.53125 -14.546875 C 7.632812 -14.734375 7.6875 -14.9375 7.6875 -15.15625 C 7.6875 -15.382812 7.675781 -15.640625 7.65625 -15.921875 L 8.359375 -15.9375 C 8.460938 -15.289062 8.441406 -14.632812 8.296875 -13.96875 C 8.160156 -13.300781 7.890625 -12.628906 7.484375 -11.953125 C 7.035156 -11.210938 6.570312 -10.6875 6.09375 -10.375 C 5.613281 -10.0625 5.132812 -9.914062 4.65625 -9.9375 C 4.1875 -9.96875 3.710938 -10.128906 3.234375 -10.421875 C 3.710938 -9.492188 3.960938 -8.554688 3.984375 -7.609375 C 4.003906 -6.671875 3.722656 -5.710938 3.140625 -4.734375 Z M 2.484375 -8.015625 C 2.722656 -8.410156 2.847656 -8.832031 2.859375 -9.28125 C 2.867188 -9.726562 2.742188 -10.234375 2.484375 -10.796875 L -3.65625 -14.484375 C -3.46875 -14.128906 -3.347656 -13.71875 -3.296875 -13.25 C -3.253906 -12.78125 -3.210938 -12.289062 -3.171875 -11.78125 C -3.140625 -11.28125 -3.070312 -10.773438 -2.96875 -10.265625 C -2.875 -9.753906 -2.664062 -9.265625 -2.34375 -8.796875 C -2.019531 -8.328125 -1.550781 -7.910156 -0.9375 -7.546875 C -0.164062 -7.078125 0.507812 -6.894531 1.09375 -7 C 1.675781 -7.113281 2.140625 -7.453125 2.484375 -8.015625 Z M 2.484375 -8.015625 "/></g></g></g><g fill="#efeee7" fill-opacity="1"><g transform="translate(131.806982, 190.124348)"><g><path d="M -11.71875 -16.34375 L 6.578125 -5.34375 C 7.515625 -4.78125 8.28125 -4.648438 8.875 -4.953125 C 9.46875 -5.253906 10.019531 -5.820312 10.53125 -6.65625 L 11.15625 -6.265625 C 10.820312 -5.765625 10.363281 -5.066406 9.78125 -4.171875 C 9.207031 -3.285156 8.613281 -2.332031 8 -1.3125 C 7.550781 -0.570312 7.128906 0.160156 6.734375 0.890625 C 6.335938 1.617188 6.046875 2.171875 5.859375 2.546875 L 5.234375 2.15625 C 5.628906 1.488281 5.769531 0.9375 5.65625 0.5 C 5.539062 0.0703125 5.082031 -0.378906 4.28125 -0.859375 L -10.71875 -9.875 C -11.613281 -10.40625 -12.363281 -10.660156 -12.96875 -10.640625 C -13.570312 -10.617188 -14.085938 -10.253906 -14.515625 -9.546875 L -15.140625 -9.9375 C -14.691406 -10.519531 -14.285156 -11.117188 -13.921875 -11.734375 C -13.429688 -12.546875 -13 -13.34375 -12.625 -14.125 C -12.257812 -14.90625 -11.957031 -15.644531 -11.71875 -16.34375 Z M -9.015625 -21.0625 C -8.398438 -22.082031 -7.578125 -22.820312 -6.546875 -23.28125 C -5.523438 -23.75 -4.3125 -23.890625 -2.90625 -23.703125 C -1.507812 -23.515625 0.015625 -22.921875 1.671875 -21.921875 C 3.128906 -21.046875 4.304688 -20.113281 5.203125 -19.125 C 6.109375 -18.132812 6.753906 -17.109375 7.140625 -16.046875 C 7.523438 -14.992188 7.648438 -13.925781 7.515625 -12.84375 C 7.390625 -11.769531 7.007812 -10.703125 6.375 -9.640625 C 5.90625 -8.867188 5.34375 -8.238281 4.6875 -7.75 C 4.03125 -7.269531 3.347656 -7.015625 2.640625 -6.984375 L 2.4375 -7.53125 C 2.914062 -7.5 3.363281 -7.609375 3.78125 -7.859375 C 4.207031 -8.117188 4.566406 -8.488281 4.859375 -8.96875 C 5.390625 -9.863281 5.507812 -10.753906 5.21875 -11.640625 C 4.925781 -12.535156 4.289062 -13.425781 3.3125 -14.3125 C 2.34375 -15.207031 1.085938 -16.117188 -0.453125 -17.046875 C -2.171875 -18.078125 -3.582031 -18.78125 -4.6875 -19.15625 C -5.800781 -19.53125 -6.679688 -19.648438 -7.328125 -19.515625 C -7.984375 -19.390625 -8.476562 -19.050781 -8.8125 -18.5 C -9.238281 -17.789062 -9.347656 -16.972656 -9.140625 -16.046875 C -8.929688 -15.117188 -8.328125 -14.300781 -7.328125 -13.59375 L -8.46875 -14.09375 C -9.394531 -15.132812 -9.890625 -16.265625 -9.953125 -17.484375 C -10.023438 -18.710938 -9.710938 -19.90625 -9.015625 -21.0625 Z M -9.015625 -21.0625 "/></g></g></g><g fill="#efeee7" fill-opacity="1"><g transform="translate(192.835263, 254.720649)"><g><path d="M 6.765625 -16.203125 C 7.617188 -16.203125 8.363281 -16.09375 9 -15.875 C 9.644531 -15.664062 10.113281 -15.457031 10.40625 -15.25 C 11.09375 -14.78125 11.519531 -15.085938 11.6875 -16.171875 L 12.328125 -16.171875 C 12.285156 -15.597656 12.253906 -14.898438 12.234375 -14.078125 C 12.210938 -13.253906 12.203125 -12.160156 12.203125 -10.796875 L 11.5625 -10.796875 C 11.457031 -11.546875 11.257812 -12.285156 10.96875 -13.015625 C 10.6875 -13.753906 10.273438 -14.359375 9.734375 -14.828125 C 9.203125 -15.296875 8.507812 -15.53125 7.65625 -15.53125 C 7.0625 -15.53125 6.5625 -15.359375 6.15625 -15.015625 C 5.75 -14.679688 5.546875 -14.203125 5.546875 -13.578125 C 5.546875 -12.960938 5.726562 -12.425781 6.09375 -11.96875 C 6.46875 -11.507812 6.941406 -11.070312 7.515625 -10.65625 C 8.097656 -10.238281 8.703125 -9.796875 9.328125 -9.328125 C 10.003906 -8.828125 10.613281 -8.328125 11.15625 -7.828125 C 11.707031 -7.328125 12.144531 -6.78125 12.46875 -6.1875 C 12.800781 -5.601562 12.96875 -4.90625 12.96875 -4.09375 C 12.96875 -3.175781 12.703125 -2.375 12.171875 -1.6875 C 11.640625 -1.007812 10.941406 -0.488281 10.078125 -0.125 C 9.210938 0.238281 8.253906 0.421875 7.203125 0.421875 C 6.585938 0.421875 6.039062 0.359375 5.5625 0.234375 C 5.082031 0.117188 4.671875 -0.03125 4.328125 -0.21875 C 4.066406 -0.332031 3.816406 -0.445312 3.578125 -0.5625 C 3.347656 -0.675781 3.128906 -0.773438 2.921875 -0.859375 C 2.722656 -0.921875 2.546875 -0.847656 2.390625 -0.640625 C 2.242188 -0.429688 2.128906 -0.144531 2.046875 0.21875 L 1.40625 0.21875 C 1.445312 -0.4375 1.476562 -1.226562 1.5 -2.15625 C 1.519531 -3.09375 1.53125 -4.335938 1.53125 -5.890625 L 2.171875 -5.890625 C 2.285156 -4.785156 2.503906 -3.8125 2.828125 -2.96875 C 3.160156 -2.125 3.601562 -1.460938 4.15625 -0.984375 C 4.71875 -0.515625 5.425781 -0.28125 6.28125 -0.28125 C 6.625 -0.28125 6.957031 -0.347656 7.28125 -0.484375 C 7.613281 -0.628906 7.882812 -0.863281 8.09375 -1.1875 C 8.3125 -1.507812 8.421875 -1.925781 8.421875 -2.4375 C 8.421875 -3.332031 8.128906 -4.070312 7.546875 -4.65625 C 6.960938 -5.25 6.226562 -5.894531 5.34375 -6.59375 C 4.6875 -7.113281 4.066406 -7.632812 3.484375 -8.15625 C 2.910156 -8.675781 2.441406 -9.242188 2.078125 -9.859375 C 1.710938 -10.484375 1.53125 -11.191406 1.53125 -11.984375 C 1.53125 -12.898438 1.769531 -13.671875 2.25 -14.296875 C 2.738281 -14.929688 3.382812 -15.40625 4.1875 -15.71875 C 5 -16.039062 5.859375 -16.203125 6.765625 -16.203125 Z M 6.765625 -16.203125 "/></g></g></g><g fill="#efeee7" fill-opacity="1"><g transform="translate(204.051805, 254.720649)"><g><path d="M 15.921875 -16.109375 L 15.921875 -3.328125 C 15.921875 -2.410156 16.0625 -1.734375 16.34375 -1.296875 C 16.632812 -0.859375 17.144531 -0.640625 17.875 -0.640625 L 17.875 0 C 17.238281 -0.0625 16.609375 -0.09375 15.984375 -0.09375 C 15.128906 -0.09375 14.332031 -0.0625 13.59375 0 C 12.863281 0.0625 12.175781 0.171875 11.53125 0.328125 L 11.53125 -2.40625 C 11.039062 -1.394531 10.363281 -0.671875 9.5 -0.234375 C 8.632812 0.203125 7.675781 0.421875 6.625 0.421875 C 5.769531 0.421875 5.078125 0.304688 4.546875 0.078125 C 4.015625 -0.140625 3.597656 -0.421875 3.296875 -0.765625 C 2.953125 -1.148438 2.707031 -1.65625 2.5625 -2.28125 C 2.414062 -2.914062 2.34375 -3.734375 2.34375 -4.734375 L 2.34375 -12.4375 C 2.34375 -13.351562 2.207031 -14.03125 1.9375 -14.46875 C 1.664062 -14.90625 1.148438 -15.125 0.390625 -15.125 L 0.390625 -15.765625 C 1.046875 -15.703125 1.675781 -15.671875 2.28125 -15.671875 C 3.132812 -15.671875 3.929688 -15.707031 4.671875 -15.78125 C 5.421875 -15.851562 6.109375 -15.960938 6.734375 -16.109375 L 6.734375 -3.484375 C 6.734375 -2.972656 6.78125 -2.523438 6.875 -2.140625 C 6.96875 -1.753906 7.144531 -1.453125 7.40625 -1.234375 C 7.675781 -1.023438 8.066406 -0.921875 8.578125 -0.921875 C 9.117188 -0.921875 9.609375 -1.070312 10.046875 -1.375 C 10.484375 -1.675781 10.835938 -2.097656 11.109375 -2.640625 C 11.390625 -3.179688 11.53125 -3.785156 11.53125 -4.453125 L 11.53125 -12.4375 C 11.53125 -13.351562 11.390625 -14.03125 11.109375 -14.46875 C 10.835938 -14.90625 10.328125 -15.125 9.578125 -15.125 L 9.578125 -15.765625 C 10.222656 -15.703125 10.851562 -15.671875 11.46875 -15.671875 C 12.320312 -15.671875 13.117188 -15.707031 13.859375 -15.78125 C 14.597656 -15.851562 15.285156 -15.960938 15.921875 -16.109375 Z M 15.921875 -16.109375 "/></g></g></g><g fill="#efeee7" fill-opacity="1"><g transform="translate(219.658182, 254.720649)"><g><path d="M 6.765625 -16.203125 C 7.617188 -16.203125 8.363281 -16.09375 9 -15.875 C 9.644531 -15.664062 10.113281 -15.457031 10.40625 -15.25 C 11.09375 -14.78125 11.519531 -15.085938 11.6875 -16.171875 L 12.328125 -16.171875 C 12.285156 -15.597656 12.253906 -14.898438 12.234375 -14.078125 C 12.210938 -13.253906 12.203125 -12.160156 12.203125 -10.796875 L 11.5625 -10.796875 C 11.457031 -11.546875 11.257812 -12.285156 10.96875 -13.015625 C 10.6875 -13.753906 10.273438 -14.359375 9.734375 -14.828125 C 9.203125 -15.296875 8.507812 -15.53125 7.65625 -15.53125 C 7.0625 -15.53125 6.5625 -15.359375 6.15625 -15.015625 C 5.75 -14.679688 5.546875 -14.203125 5.546875 -13.578125 C 5.546875 -12.960938 5.726562 -12.425781 6.09375 -11.96875 C 6.46875 -11.507812 6.941406 -11.070312 7.515625 -10.65625 C 8.097656 -10.238281 8.703125 -9.796875 9.328125 -9.328125 C 10.003906 -8.828125 10.613281 -8.328125 11.15625 -7.828125 C 11.707031 -7.328125 12.144531 -6.78125 12.46875 -6.1875 C 12.800781 -5.601562 12.96875 -4.90625 12.96875 -4.09375 C 12.96875 -3.175781 12.703125 -2.375 12.171875 -1.6875 C 11.640625 -1.007812 10.941406 -0.488281 10.078125 -0.125 C 9.210938 0.238281 8.253906 0.421875 7.203125 0.421875 C 6.585938 0.421875 6.039062 0.359375 5.5625 0.234375 C 5.082031 0.117188 4.671875 -0.03125 4.328125 -0.21875 C 4.066406 -0.332031 3.816406 -0.445312 3.578125 -0.5625 C 3.347656 -0.675781 3.128906 -0.773438 2.921875 -0.859375 C 2.722656 -0.921875 2.546875 -0.847656 2.390625 -0.640625 C 2.242188 -0.429688 2.128906 -0.144531 2.046875 0.21875 L 1.40625 0.21875 C 1.445312 -0.4375 1.476562 -1.226562 1.5 -2.15625 C 1.519531 -3.09375 1.53125 -4.335938 1.53125 -5.890625 L 2.171875 -5.890625 C 2.285156 -4.785156 2.503906 -3.8125 2.828125 -2.96875 C 3.160156 -2.125 3.601562 -1.460938 4.15625 -0.984375 C 4.71875 -0.515625 5.425781 -0.28125 6.28125 -0.28125 C 6.625 -0.28125 6.957031 -0.347656 7.28125 -0.484375 C 7.613281 -0.628906 7.882812 -0.863281 8.09375 -1.1875 C 8.3125 -1.507812 8.421875 -1.925781 8.421875 -2.4375 C 8.421875 -3.332031 8.128906 -4.070312 7.546875 -4.65625 C 6.960938 -5.25 6.226562 -5.894531 5.34375 -6.59375 C 4.6875 -7.113281 4.066406 -7.632812 3.484375 -8.15625 C 2.910156 -8.675781 2.441406 -9.242188 2.078125 -9.859375 C 1.710938 -10.484375 1.53125 -11.191406 1.53125 -11.984375 C 1.53125 -12.898438 1.769531 -13.671875 2.25 -14.296875 C 2.738281 -14.929688 3.382812 -15.40625 4.1875 -15.71875 C 5 -16.039062 5.859375 -16.203125 6.765625 -16.203125 Z M 6.765625 -16.203125 "/></g></g></g><g fill="#efeee7" fill-opacity="1"><g transform="translate(230.874724, 254.720649)"><g><path d="M 6.921875 -20.765625 L 6.921875 -15.765625 L 10.515625 -15.765625 L 10.515625 -15.15625 L 6.921875 -15.15625 L 6.921875 -2.84375 C 6.921875 -2.226562 7.03125 -1.789062 7.25 -1.53125 C 7.476562 -1.28125 7.816406 -1.15625 8.265625 -1.15625 C 8.628906 -1.15625 8.992188 -1.289062 9.359375 -1.5625 C 9.722656 -1.84375 10.050781 -2.316406 10.34375 -2.984375 L 10.859375 -2.71875 C 10.535156 -1.800781 10.039062 -1.046875 9.375 -0.453125 C 8.71875 0.128906 7.816406 0.421875 6.671875 0.421875 C 6.003906 0.421875 5.414062 0.332031 4.90625 0.15625 C 4.394531 -0.0078125 3.96875 -0.265625 3.625 -0.609375 C 3.175781 -1.054688 2.878906 -1.609375 2.734375 -2.265625 C 2.597656 -2.929688 2.53125 -3.789062 2.53125 -4.84375 L 2.53125 -15.15625 L -0.03125 -15.15625 L -0.03125 -15.765625 L 2.53125 -15.765625 L 2.53125 -19.796875 C 3.382812 -19.796875 4.171875 -19.867188 4.890625 -20.015625 C 5.617188 -20.171875 6.296875 -20.421875 6.921875 -20.765625 Z M 6.921875 -20.765625 "/></g></g></g><g fill="#efeee7" fill-opacity="1"><g transform="translate(238.73791, 254.720649)"><g><path d="M 4.9375 0.21875 C 4.019531 0.21875 3.253906 0.046875 2.640625 -0.296875 C 2.035156 -0.648438 1.59375 -1.113281 1.3125 -1.6875 C 1.03125 -2.269531 0.890625 -2.90625 0.890625 -3.59375 C 0.890625 -4.46875 1.085938 -5.179688 1.484375 -5.734375 C 1.878906 -6.285156 2.390625 -6.734375 3.015625 -7.078125 C 3.648438 -7.421875 4.316406 -7.703125 5.015625 -7.921875 C 5.710938 -8.148438 6.378906 -8.367188 7.015625 -8.578125 C 7.660156 -8.796875 8.179688 -9.050781 8.578125 -9.34375 C 8.984375 -9.644531 9.1875 -10.023438 9.1875 -10.484375 L 9.1875 -12.875 C 9.1875 -13.394531 9.097656 -13.863281 8.921875 -14.28125 C 8.742188 -14.707031 8.476562 -15.03125 8.125 -15.25 C 7.769531 -15.46875 7.304688 -15.578125 6.734375 -15.578125 C 6.328125 -15.578125 5.921875 -15.519531 5.515625 -15.40625 C 5.109375 -15.300781 4.773438 -15.117188 4.515625 -14.859375 C 5.085938 -14.648438 5.53125 -14.335938 5.84375 -13.921875 C 6.15625 -13.503906 6.3125 -13.03125 6.3125 -12.5 C 6.3125 -11.8125 6.070312 -11.265625 5.59375 -10.859375 C 5.113281 -10.453125 4.550781 -10.25 3.90625 -10.25 C 3.175781 -10.25 2.617188 -10.476562 2.234375 -10.9375 C 1.859375 -11.394531 1.671875 -11.945312 1.671875 -12.59375 C 1.671875 -13.1875 1.816406 -13.675781 2.109375 -14.0625 C 2.410156 -14.445312 2.828125 -14.8125 3.359375 -15.15625 C 3.921875 -15.476562 4.601562 -15.734375 5.40625 -15.921875 C 6.21875 -16.109375 7.085938 -16.203125 8.015625 -16.203125 C 8.953125 -16.203125 9.796875 -16.101562 10.546875 -15.90625 C 11.304688 -15.707031 11.9375 -15.359375 12.4375 -14.859375 C 12.90625 -14.390625 13.210938 -13.8125 13.359375 -13.125 C 13.503906 -12.445312 13.578125 -11.585938 13.578125 -10.546875 L 13.578125 -2.25 C 13.578125 -1.75 13.625 -1.398438 13.71875 -1.203125 C 13.820312 -1.015625 14 -0.921875 14.25 -0.921875 C 14.425781 -0.921875 14.597656 -0.96875 14.765625 -1.0625 C 14.941406 -1.164062 15.132812 -1.289062 15.34375 -1.4375 L 15.640625 -0.921875 C 15.210938 -0.546875 14.71875 -0.257812 14.15625 -0.0625 C 13.601562 0.125 12.984375 0.21875 12.296875 0.21875 C 11.535156 0.21875 10.929688 0.113281 10.484375 -0.09375 C 10.046875 -0.3125 9.726562 -0.601562 9.53125 -0.96875 C 9.332031 -1.34375 9.234375 -1.769531 9.234375 -2.25 C 8.753906 -1.476562 8.164062 -0.875 7.46875 -0.4375 C 6.78125 0 5.9375 0.21875 4.9375 0.21875 Z M 7.109375 -1.734375 C 7.515625 -1.734375 7.882812 -1.828125 8.21875 -2.015625 C 8.550781 -2.210938 8.875 -2.535156 9.1875 -2.984375 L 9.1875 -9.234375 C 9 -8.929688 8.742188 -8.65625 8.421875 -8.40625 C 8.097656 -8.164062 7.75 -7.921875 7.375 -7.671875 C 7.007812 -7.421875 6.660156 -7.140625 6.328125 -6.828125 C 5.992188 -6.523438 5.722656 -6.148438 5.515625 -5.703125 C 5.316406 -5.253906 5.21875 -4.71875 5.21875 -4.09375 C 5.21875 -3.289062 5.390625 -2.695312 5.734375 -2.3125 C 6.078125 -1.925781 6.535156 -1.734375 7.109375 -1.734375 Z M 7.109375 -1.734375 "/></g></g></g><g fill="#efeee7" fill-opacity="1"><g transform="translate(251.661613, 254.720649)"><g><path d="M 4.6875 -23.640625 C 5.539062 -23.640625 6.21875 -23.429688 6.71875 -23.015625 C 7.21875 -22.597656 7.46875 -22.019531 7.46875 -21.28125 C 7.46875 -20.550781 7.21875 -19.976562 6.71875 -19.5625 C 6.21875 -19.144531 5.539062 -18.9375 4.6875 -18.9375 C 3.832031 -18.9375 3.15625 -19.144531 2.65625 -19.5625 C 2.164062 -19.976562 1.921875 -20.550781 1.921875 -21.28125 C 1.921875 -22.019531 2.164062 -22.597656 2.65625 -23.015625 C 3.15625 -23.429688 3.832031 -23.640625 4.6875 -23.640625 Z M 7.078125 -16.109375 L 7.078125 -2.84375 C 7.078125 -1.988281 7.222656 -1.40625 7.515625 -1.09375 C 7.804688 -0.789062 8.3125 -0.640625 9.03125 -0.640625 L 9.03125 0 C 8.664062 -0.0195312 8.09375 -0.046875 7.3125 -0.078125 C 6.539062 -0.109375 5.757812 -0.125 4.96875 -0.125 C 4.175781 -0.125 3.375 -0.109375 2.5625 -0.078125 C 1.75 -0.046875 1.140625 -0.0195312 0.734375 0 L 0.734375 -0.640625 C 1.441406 -0.640625 1.941406 -0.789062 2.234375 -1.09375 C 2.535156 -1.40625 2.6875 -1.988281 2.6875 -2.84375 L 2.6875 -12.4375 C 2.6875 -13.351562 2.546875 -14.03125 2.265625 -14.46875 C 1.992188 -14.90625 1.484375 -15.125 0.734375 -15.125 L 0.734375 -15.765625 C 1.378906 -15.703125 2.007812 -15.671875 2.625 -15.671875 C 3.476562 -15.671875 4.273438 -15.707031 5.015625 -15.78125 C 5.753906 -15.851562 6.441406 -15.960938 7.078125 -16.109375 Z M 7.078125 -16.109375 "/></g></g></g><g fill="#efeee7" fill-opacity="1"><g transform="translate(258.396845, 254.720649)"><g><path d="M 12.078125 -16.203125 C 12.929688 -16.203125 13.625 -16.09375 14.15625 -15.875 C 14.695312 -15.664062 15.125 -15.375 15.4375 -15 C 15.757812 -14.613281 15.992188 -14.113281 16.140625 -13.5 C 16.296875 -12.894531 16.375 -12.078125 16.375 -11.046875 L 16.375 -2.84375 C 16.375 -1.988281 16.519531 -1.40625 16.8125 -1.09375 C 17.113281 -0.789062 17.617188 -0.640625 18.328125 -0.640625 L 18.328125 0 C 17.941406 -0.0195312 17.363281 -0.046875 16.59375 -0.078125 C 15.820312 -0.109375 15.054688 -0.125 14.296875 -0.125 C 13.523438 -0.125 12.769531 -0.109375 12.03125 -0.078125 C 11.289062 -0.046875 10.726562 -0.0195312 10.34375 0 L 10.34375 -0.640625 C 10.945312 -0.640625 11.367188 -0.789062 11.609375 -1.09375 C 11.859375 -1.40625 11.984375 -1.988281 11.984375 -2.84375 L 11.984375 -12.328125 C 11.984375 -12.828125 11.929688 -13.265625 11.828125 -13.640625 C 11.734375 -14.023438 11.550781 -14.320312 11.28125 -14.53125 C 11.019531 -14.75 10.625 -14.859375 10.09375 -14.859375 C 9.539062 -14.859375 9.035156 -14.703125 8.578125 -14.390625 C 8.128906 -14.085938 7.765625 -13.664062 7.484375 -13.125 C 7.210938 -12.59375 7.078125 -11.988281 7.078125 -11.3125 L 7.078125 -2.84375 C 7.078125 -1.988281 7.203125 -1.40625 7.453125 -1.09375 C 7.710938 -0.789062 8.132812 -0.640625 8.71875 -0.640625 L 8.71875 0 C 8.351562 -0.0195312 7.816406 -0.046875 7.109375 -0.078125 C 6.410156 -0.109375 5.6875 -0.125 4.9375 -0.125 C 4.164062 -0.125 3.375 -0.109375 2.5625 -0.078125 C 1.75 -0.046875 1.140625 -0.0195312 0.734375 0 L 0.734375 -0.640625 C 1.441406 -0.640625 1.941406 -0.789062 2.234375 -1.09375 C 2.535156 -1.40625 2.6875 -1.988281 2.6875 -2.84375 L 2.6875 -12.4375 C 2.6875 -13.351562 2.546875 -14.03125 2.265625 -14.46875 C 1.992188 -14.90625 1.484375 -15.125 0.734375 -15.125 L 0.734375 -15.765625 C 1.378906 -15.703125 2.007812 -15.671875 2.625 -15.671875 C 3.476562 -15.671875 4.273438 -15.707031 5.015625 -15.78125 C 5.753906 -15.851562 6.441406 -15.960938 7.078125 -16.109375 L 7.078125 -13.359375 C 7.585938 -14.398438 8.28125 -15.132812 9.15625 -15.5625 C 10.03125 -15.988281 11.003906 -16.203125 12.078125 -16.203125 Z M 12.078125 -16.203125 "/></g></g></g><g fill="#efeee7" fill-opacity="1"><g transform="translate(196.65157, 89.706115)"><g><path d="M 17.21875 -3.578125 C 17.695312 -2.878906 18.03125 -2.203125 18.21875 -1.546875 C 18.40625 -0.898438 18.492188 -0.398438 18.484375 -0.046875 C 18.492188 0.773438 18.988281 0.957031 19.96875 0.5 L 20.328125 1.015625 C 19.835938 1.304688 19.25 1.675781 18.5625 2.125 C 17.875 2.570312 16.96875 3.179688 15.84375 3.953125 L 15.46875 3.421875 C 16.03125 2.921875 16.53125 2.34375 16.96875 1.6875 C 17.414062 1.03125 17.675781 0.347656 17.75 -0.359375 C 17.832031 -1.066406 17.632812 -1.769531 17.15625 -2.46875 C 16.820312 -2.957031 16.398438 -3.273438 15.890625 -3.421875 C 15.390625 -3.566406 14.875 -3.457031 14.34375 -3.09375 C 13.84375 -2.75 13.503906 -2.296875 13.328125 -1.734375 C 13.160156 -1.179688 13.066406 -0.546875 13.046875 0.171875 C 13.035156 0.890625 13.015625 1.640625 12.984375 2.421875 C 12.953125 3.265625 12.882812 4.050781 12.78125 4.78125 C 12.6875 5.507812 12.484375 6.175781 12.171875 6.78125 C 11.867188 7.394531 11.382812 7.929688 10.71875 8.390625 C 9.957031 8.910156 9.144531 9.144531 8.28125 9.09375 C 7.425781 9.039062 6.601562 8.757812 5.8125 8.25 C 5.03125 7.738281 4.335938 7.046875 3.734375 6.171875 C 3.390625 5.671875 3.128906 5.1875 2.953125 4.71875 C 2.785156 4.257812 2.679688 3.835938 2.640625 3.453125 C 2.585938 3.171875 2.539062 2.898438 2.5 2.640625 C 2.457031 2.378906 2.410156 2.144531 2.359375 1.9375 C 2.296875 1.726562 2.140625 1.617188 1.890625 1.609375 C 1.640625 1.609375 1.332031 1.675781 0.96875 1.8125 L 0.609375 1.28125 C 1.171875 0.945312 1.84375 0.519531 2.625 0 C 3.414062 -0.507812 4.445312 -1.195312 5.71875 -2.0625 L 6.09375 -1.53125 C 5.25 -0.820312 4.570312 -0.09375 4.0625 0.65625 C 3.550781 1.40625 3.257812 2.144531 3.1875 2.875 C 3.113281 3.613281 3.316406 4.332031 3.796875 5.03125 C 3.992188 5.3125 4.238281 5.546875 4.53125 5.734375 C 4.832031 5.929688 5.179688 6.023438 5.578125 6.015625 C 5.972656 6.003906 6.378906 5.859375 6.796875 5.578125 C 7.535156 5.066406 7.984375 4.40625 8.140625 3.59375 C 8.296875 2.78125 8.40625 1.804688 8.46875 0.671875 C 8.53125 -0.160156 8.609375 -0.960938 8.703125 -1.734375 C 8.804688 -2.503906 9.007812 -3.21875 9.3125 -3.875 C 9.625 -4.53125 10.101562 -5.082031 10.75 -5.53125 C 11.507812 -6.039062 12.289062 -6.273438 13.09375 -6.234375 C 13.894531 -6.191406 14.648438 -5.925781 15.359375 -5.4375 C 16.078125 -4.957031 16.695312 -4.335938 17.21875 -3.578125 Z M 17.21875 -3.578125 "/></g></g></g><g fill="#efeee7" fill-opacity="1"><g transform="translate(203.009488, 98.969467)"><g><path d="M 21.0625 -6.046875 L 16.953125 -3.21875 L 18.984375 -0.25 L 18.46875 0.09375 L 16.4375 -2.875 L 6.265625 4.109375 C 5.753906 4.453125 5.457031 4.789062 5.375 5.125 C 5.300781 5.457031 5.390625 5.804688 5.640625 6.171875 C 5.847656 6.472656 6.164062 6.695312 6.59375 6.84375 C 7.03125 6.988281 7.609375 6.988281 8.328125 6.84375 L 8.390625 7.4375 C 7.453125 7.675781 6.550781 7.691406 5.6875 7.484375 C 4.832031 7.273438 4.082031 6.695312 3.4375 5.75 C 3.0625 5.195312 2.800781 4.660156 2.65625 4.140625 C 2.507812 3.628906 2.476562 3.132812 2.5625 2.65625 C 2.6875 2.039062 2.976562 1.484375 3.4375 0.984375 C 3.894531 0.492188 4.5625 -0.0507812 5.4375 -0.65625 L 13.953125 -6.5 L 12.5 -8.625 L 13.015625 -8.96875 L 14.46875 -6.84375 L 17.78125 -9.125 C 18.257812 -8.425781 18.765625 -7.820312 19.296875 -7.3125 C 19.835938 -6.800781 20.425781 -6.378906 21.0625 -6.046875 Z M 21.0625 -6.046875 "/></g></g></g><g fill="#efeee7" fill-opacity="1"><g transform="translate(207.466717, 105.463556)"><g><path d="M 21.90625 3.984375 L 21.390625 4.328125 C 21.085938 4.066406 20.679688 3.894531 20.171875 3.8125 C 19.671875 3.738281 18.957031 3.828125 18.03125 4.078125 L 5.609375 7.375 L 3.203125 7.65625 L 11.90625 -6.390625 C 12.375 -7.128906 12.582031 -7.6875 12.53125 -8.0625 C 12.488281 -8.4375 12.398438 -8.722656 12.265625 -8.921875 L 12.796875 -9.28125 C 13.117188 -8.695312 13.472656 -8.097656 13.859375 -7.484375 C 14.242188 -6.867188 14.625 -6.285156 15 -5.734375 C 15.476562 -5.035156 15.925781 -4.414062 16.34375 -3.875 C 16.769531 -3.332031 17.175781 -2.820312 17.5625 -2.34375 L 17.03125 -1.984375 C 16.800781 -2.316406 16.5625 -2.613281 16.3125 -2.875 C 16.0625 -3.132812 15.800781 -3.253906 15.53125 -3.234375 C 15.257812 -3.222656 14.960938 -2.953125 14.640625 -2.421875 L 9.15625 6 L 8.84375 5.875 L 15.34375 4.171875 C 16.46875 3.867188 17.300781 3.492188 17.84375 3.046875 C 18.394531 2.597656 18.707031 2.109375 18.78125 1.578125 C 18.851562 1.054688 18.71875 0.515625 18.375 -0.046875 L 18.890625 -0.390625 C 19.054688 -0.117188 19.226562 0.160156 19.40625 0.453125 C 19.59375 0.742188 19.78125 1.035156 19.96875 1.328125 C 20.164062 1.617188 20.335938 1.867188 20.484375 2.078125 C 20.710938 2.421875 20.960938 2.769531 21.234375 3.125 C 21.503906 3.488281 21.726562 3.773438 21.90625 3.984375 Z M 5.609375 7.375 L 2.265625 8.265625 C 1.722656 8.390625 1.242188 8.460938 0.828125 8.484375 C 0.421875 8.503906 0.046875 8.472656 -0.296875 8.390625 C -0.648438 8.296875 -1.003906 8.097656 -1.359375 7.796875 C -1.722656 7.503906 -2.078125 7.113281 -2.421875 6.625 C -2.691406 6.21875 -2.90625 5.753906 -3.0625 5.234375 C -3.226562 4.710938 -3.253906 4.207031 -3.140625 3.71875 C -3.035156 3.226562 -2.75 2.816406 -2.28125 2.484375 C -1.757812 2.128906 -1.21875 2.03125 -0.65625 2.1875 C -0.09375 2.34375 0.394531 2.722656 0.8125 3.328125 C 1.195312 3.890625 1.375 4.4375 1.34375 4.96875 C 1.3125 5.507812 1.035156 5.957031 0.515625 6.3125 C 0.179688 6.539062 -0.207031 6.65625 -0.65625 6.65625 C -1.101562 6.65625 -1.539062 6.492188 -1.96875 6.171875 C -1.9375 6.273438 -1.878906 6.382812 -1.796875 6.5 C -1.710938 6.613281 -1.648438 6.707031 -1.609375 6.78125 C -1.253906 7.28125 -0.785156 7.613281 -0.203125 7.78125 C 0.378906 7.945312 1.097656 7.921875 1.953125 7.703125 L 5.140625 6.796875 Z M 5.609375 7.375 "/></g></g></g><g fill="#efeee7" fill-opacity="1"><g transform="translate(214.809533, 116.161884)"><g><path d="M 23.65625 -7.78125 L 6.28125 4.140625 C 5.570312 4.617188 5.175781 5.066406 5.09375 5.484375 C 5.007812 5.898438 5.171875 6.40625 5.578125 7 L 5.046875 7.359375 C 4.847656 7.023438 4.539062 6.523438 4.125 5.859375 C 3.71875 5.203125 3.289062 4.550781 2.84375 3.90625 C 2.394531 3.25 1.925781 2.597656 1.4375 1.953125 C 0.957031 1.304688 0.59375 0.820312 0.34375 0.5 L 0.875 0.140625 C 1.28125 0.734375 1.691406 1.0625 2.109375 1.125 C 2.523438 1.1875 3.085938 0.976562 3.796875 0.5 L 18.15625 -9.34375 C 18.90625 -9.863281 19.378906 -10.359375 19.578125 -10.828125 C 19.785156 -11.304688 19.675781 -11.859375 19.25 -12.484375 L 19.78125 -12.84375 C 20.101562 -12.269531 20.4375 -11.734375 20.78125 -11.234375 C 21.25 -10.546875 21.726562 -9.910156 22.21875 -9.328125 C 22.707031 -8.742188 23.1875 -8.226562 23.65625 -7.78125 Z M 23.65625 -7.78125 "/></g></g></g><g fill="#efeee7" fill-opacity="1"><g transform="translate(218.558328, 121.623798)"><g><path d="M 18.25 -2.078125 C 19.257812 -0.597656 19.613281 0.859375 19.3125 2.296875 C 19.019531 3.734375 17.882812 5.132812 15.90625 6.5 L 10.21875 -1.78125 L 10.65625 -2.171875 L 14.203125 3 C 15.035156 2.445312 15.757812 1.867188 16.375 1.265625 C 16.988281 0.671875 17.421875 0.109375 17.671875 -0.421875 C 17.921875 -0.960938 17.90625 -1.441406 17.625 -1.859375 C 17.21875 -2.453125 16.5 -2.703125 15.46875 -2.609375 C 14.445312 -2.515625 13.054688 -1.914062 11.296875 -0.8125 L 11.1875 -0.640625 C 10.96875 -0.523438 10.75 -0.394531 10.53125 -0.25 C 10.3125 -0.113281 10.082031 0.0351562 9.84375 0.203125 C 8.6875 1.003906 7.859375 1.816406 7.359375 2.640625 C 6.859375 3.460938 6.617188 4.238281 6.640625 4.96875 C 6.660156 5.695312 6.851562 6.320312 7.21875 6.84375 C 7.457031 7.195312 7.757812 7.523438 8.125 7.828125 C 8.488281 8.128906 8.953125 8.367188 9.515625 8.546875 C 10.078125 8.734375 10.738281 8.8125 11.5 8.78125 L 11.671875 9.328125 C 10.878906 9.566406 10.035156 9.671875 9.140625 9.640625 C 8.242188 9.617188 7.367188 9.40625 6.515625 9 C 5.671875 8.59375 4.929688 7.921875 4.296875 6.984375 C 3.503906 5.835938 3.050781 4.660156 2.9375 3.453125 C 2.820312 2.253906 3.085938 1.066406 3.734375 -0.109375 C 4.390625 -1.285156 5.484375 -2.398438 7.015625 -3.453125 C 8.566406 -4.523438 10.046875 -5.148438 11.453125 -5.328125 C 12.867188 -5.503906 14.148438 -5.300781 15.296875 -4.71875 C 16.453125 -4.132812 17.4375 -3.253906 18.25 -2.078125 Z M 18.25 -2.078125 "/></g></g></g></svg>